<?xml version="1.0" encoding="UTF-8"?>
<svg version="1.1" xmlns="http://www.w3.org/2000/svg" width="8001" height="4001">
<path d="M0 0 C1.10810783 0.00040031 1.10810783 0.00040031 2.23860168 0.00080872 C24.98331353 0.01110733 47.63942887 0.20981121 70.3125 2.1875 C71.43171844 2.28224609 71.43171844 2.28224609 72.57354736 2.37890625 C157.63174119 9.5932592 240.72925126 29.39771189 334.3125 72.1875 C335.20227539 72.61240723 336.09205078 73.03731445 337.00878906 73.47509766 C382.54636335 95.37584107 424.5585514 123.87874894 463.3125 156.1875 C463.90579102 156.68169434 464.49908203 157.17588867 465.11035156 157.68505859 C479.37097737 169.616056 492.75623086 182.45756804 505.87695312 195.62158203 C507.83608656 197.58615201 509.80061644 199.54521448 511.765625 201.50390625 C517.82740529 207.56215191 523.79313167 213.62387618 529.3125 220.1875 C530.35691431 221.37976421 531.40380666 222.56986207 532.453125 223.7578125 C539.16389728 231.41310333 545.61221417 239.21140466 551.82763672 247.27294922 C553.44649041 249.36026436 555.083312 251.43264992 556.72265625 253.50390625 C563.854028 262.54081488 570.64626869 271.71710066 577.04199219 281.2890625 C578.27145862 283.12617452 579.5129638 284.95453719 580.7578125 286.78125 C587.37838624 296.54300102 593.60326825 306.54529282 599.74169922 316.61572266 C600.75656894 318.27730761 601.77610769 319.93605384 602.80126953 321.59130859 C612.27633154 336.89267118 618.89325086 351.59801565 615.2265625 370.078125 C610.52991358 386.05475979 600.91094222 396.25664678 586.51379395 404.17703247 C581.81590817 406.68802664 577.06407421 409.09271164 572.3125 411.5 C570.08672152 412.63556375 567.86195535 413.77309465 565.63720703 414.91067505 C564.18017157 415.65550559 562.72281871 416.39971559 561.26513672 417.14328003 C555.92596716 419.86753763 550.60933525 422.63172124 545.3125 425.4375 C538.16254341 429.21996913 530.99146548 432.96037382 523.8125 436.6875 C516.46856147 440.50095393 509.13109151 444.32561348 501.8125 448.1875 C493.41689683 452.61770583 484.99493868 456.99637823 476.5703125 461.37109375 C470.30787569 464.62480481 464.05406514 467.89394054 457.8125 471.1875 C449.42791046 475.61189413 441.01734463 479.98549469 432.60327148 484.35351562 C426.01516294 487.77569879 419.44019018 491.22158602 412.875 494.6875 C410.65639632 495.85538036 408.43720896 497.02213105 406.21728516 498.1875 C404.53343949 499.07150818 402.85062559 499.95748105 401.16796875 500.84375 C400.30816406 501.2871875 399.44835938 501.730625 398.5625 502.1875 C397.88703125 502.538125 397.2115625 502.88875 396.515625 503.25 C390.30821374 505.8914516 384.64756466 506.545731 378 506.5 C377.15840332 506.49508545 376.31680664 506.4901709 375.44970703 506.48510742 C369.32014442 506.36948886 363.94585962 505.75473215 358.3125 503.1875 C357.57257813 502.85878906 356.83265625 502.53007813 356.0703125 502.19140625 C343.53788812 495.92519406 336.56494534 485.67086742 328.90625 474.41015625 C321.0379148 462.86524776 312.29843338 451.87845664 303.3125 441.1875 C302.88179199 440.671875 302.45108398 440.15625 302.00732422 439.625 C288.5543967 423.55161848 274.27626064 407.48122062 258.28125 393.87890625 C256.03468493 391.94882158 253.86666096 389.94331861 251.6875 387.9375 C229.23062516 367.72972036 203.66674198 350.82650511 177.3125 336.1875 C176.44947266 335.70667969 175.58644531 335.22585938 174.69726562 334.73046875 C131.33954821 310.79372454 82.4415537 295.31480656 33.3125 289.1875 C31.58797607 288.96537842 31.58797607 288.96537842 29.82861328 288.73876953 C-44.99930659 279.48612244 -131.80775242 285.80467493 -193.39453125 333.50976562 C-235.37302815 366.68949093 -256.46764029 414.37541665 -262.66992188 466.77050781 C-267.1481178 509.31336913 -261.49642601 550.38683198 -234.5 584.625 C-220.63276854 601.09529538 -204.4383638 613.70867129 -185.6875 624.1875 C-185.00445801 624.57615234 -184.32141602 624.96480469 -183.61767578 625.36523438 C-109.21822079 667.43403615 -17.75073798 677.99435567 72.49303246 694.29073715 C143.59807026 707.12439364 214.70876923 720.0572591 284.09594727 740.53375244 C286.18600449 741.15019156 288.27737262 741.76195468 290.36914062 742.37255859 C341.04142351 757.25803372 390.79406487 777.28946709 436.3125 804.1875 C437.13073242 804.66960938 437.94896484 805.15171875 438.79199219 805.6484375 C459.41994519 817.86491028 478.97493201 831.73855032 497.3125 847.1875 C497.86147949 847.64624512 498.41045898 848.10499023 498.97607422 848.57763672 C506.79975838 855.12363232 514.21044427 861.85675554 521.3125 869.1875 C523.96446121 871.85682266 526.63500319 874.50515884 529.328125 877.1328125 C536.14827438 883.81561529 542.40438243 890.67173139 548.3125 898.1875 C549.24272507 899.32981102 550.17513982 900.4703413 551.109375 901.609375 C612.85285828 977.15910601 638.58183251 1073.10934524 646.515625 1197.7421875 C646.51845238 1198.50148685 646.52127975 1199.26078621 646.52419281 1200.04309464 C646.53904862 1204.07642184 646.54835871 1208.10971465 646.55273438 1212.14306641 C646.55707683 1215.39057917 646.57082267 1218.63781992 646.59375 1221.88525391 C647.17422688 1305.918182 629.31011559 1387.25203924 553.3125 1515.1875 C552.59449219 1516.08339844 551.87648438 1516.97929687 551.13671875 1517.90234375 C548.88777768 1520.68655676 546.60438863 1523.43852498 544.3125 1526.1875 C543.89291519 1526.6924852 543.47333038 1527.1974704 543.04103088 1527.71775818 C535.76024075 1536.45089241 528.11607454 1544.70178263 520.04858398 1552.7121582 C518.24028392 1554.50965805 516.44304023 1556.31772316 514.64648438 1558.12695312 C508.56886906 1564.21147028 502.41671576 1569.95382225 495.6784668 1575.30737305 C493.67074128 1576.90282184 491.72764685 1578.53459292 489.80859375 1580.234375 C426.42034864 1636.36721661 342.43028841 1670.27149487 -70.77606201 1719.37109375 C-157.21411973 1713.92035524 -243.8193429 1698.09140445 -399.6875 1629.1875 C-400.7796582 1628.55666504 -401.87181641 1627.92583008 -402.99707031 1627.27587891 C-416.15508836 1619.65041521 -429.22150672 1611.91199461 -441.6875 1603.1875 C-442.3695752 1602.7136084 -443.05165039 1602.2397168 -443.75439453 1601.75146484 C-467.1378209 1585.48904619 -467.1378209 1585.48904619 -472.69921875 1580.31640625 C-474.68994816 1578.88930738 -474.68994816 1578.88930738 -477.19921875 1579.76953125 C-479.77885199 1581.23955773 -481.47943179 1582.70980165 -483.5 1584.875 C-486.72123213 1588.22267302 -490.0441705 1591.3172201 -493.5625 1594.34765625 C-497.66127684 1597.89641341 -501.66388177 1601.55405081 -505.6875 1605.1875 C-515.17622041 1613.75610207 -515.17622041 1613.75610207 -519.625 1617.625 C-522.85309512 1620.43572525 -526.02488443 1623.303299 -529.1875 1626.1875 C-533.64178515 1630.24353407 -538.10335465 1634.27853885 -542.6875 1638.1875 C-543.45578125 1638.8578125 -544.2240625 1639.528125 -545.015625 1640.21875 C-554.80339109 1648.46755915 -566.30470199 1653.88233852 -579.37109375 1653.43359375 C-593.00718594 1651.98490267 -605.29849404 1647.51142816 -614.6875 1637.1875 C-625.25681268 1623.69429959 -627.29820344 1606.33993194 -630.67578125 1589.99609375 C-631.1667799 1587.64343009 -631.65834313 1585.29088419 -632.15042114 1582.93844604 C-633.21263802 1577.85460815 -634.27116316 1572.77001659 -635.3263855 1567.6847229 C-636.88589955 1560.16953547 -638.45264731 1552.65586941 -640.02126753 1545.14257801 C-640.76626872 1541.57417252 -641.51101357 1538.00571355 -642.25569153 1534.4372406 C-642.40551261 1533.71930385 -642.55533369 1533.00136711 -642.7096948 1532.2616747 C-643.79249656 1527.07217993 -644.87399665 1521.88241485 -645.95487976 1516.69252014 C-650.40604853 1495.32063465 -654.87318974 1473.9521386 -659.3515625 1452.5859375 C-659.67347805 1451.05000451 -659.99539272 1449.51407133 -660.31730652 1447.97813797 C-661.6106307 1441.80747578 -662.90404378 1435.63683222 -664.19760132 1429.46621895 C-667.63476567 1413.06980586 -671.06887551 1396.67275336 -674.50256538 1380.27561235 C-674.99168541 1377.93989767 -675.48081854 1375.60418573 -675.96995544 1373.26847458 C-680.60887812 1351.1167559 -685.24640743 1328.96474575 -689.8828125 1306.8125 C-690.02739104 1306.12172426 -690.17196958 1305.43094852 -690.32092929 1304.71924019 C-693.29394756 1290.51457004 -696.2667493 1276.30985462 -699.23890209 1262.10500336 C-704.62663907 1236.35538508 -710.01735259 1210.60639936 -715.4194088 1184.85978127 C-716.21216716 1181.08124433 -717.00477226 1177.30267527 -717.7973175 1173.52409363 C-718.05291663 1172.30550061 -718.30851576 1171.0869076 -718.57186031 1169.83138752 C-719.07935597 1167.41184763 -719.58684619 1164.9923066 -720.09433079 1162.5727644 C-721.54941007 1155.63593499 -723.0056162 1148.69934337 -724.46269512 1141.76293373 C-725.34592178 1137.55716052 -726.22815609 1133.35117961 -727.11012077 1129.1451416 C-727.51592163 1127.2109966 -727.92215636 1125.27694257 -728.32885933 1123.34298706 C-728.88133943 1120.71562863 -729.43230885 1118.08795777 -729.98291016 1115.46020508 C-730.14268373 1114.70227567 -730.30245729 1113.94434626 -730.46707249 1113.16344929 C-733.68157467 1097.78901955 -733.55097432 1084.57514617 -725.27734375 1070.6171875 C-718.20986721 1059.81627741 -707.91396464 1052.64787693 -695.30078125 1049.61328125 C-685.85252298 1048.07387893 -677.41749108 1048.9307639 -668.3515625 1051.65234375 C-667.00192917 1052.04818665 -667.00192917 1052.04818665 -665.62503052 1052.45202637 C-654.73700258 1055.69390691 -643.9739672 1059.32492401 -633.21118164 1062.95663452 C-627.52072365 1064.87628359 -621.82578918 1066.78253837 -616.1309433 1068.68912315 C-614.21700595 1069.32999925 -612.30323305 1069.97136475 -610.38946533 1070.61274719 C-600.00667376 1074.08937782 -589.60418264 1077.5014952 -579.1875 1080.875 C-560.67277408 1086.87616455 -542.18110045 1092.94625402 -523.69313049 1099.0292244 C-516.54292315 1101.38178729 -509.39255103 1103.73384936 -502.2421875 1106.0859375 C-501.45589966 1106.34459406 -500.66961182 1106.60325062 -499.85949707 1106.86974525 C-484.0552839 1112.06852163 -468.24729226 1117.25571634 -452.4375 1122.4375 C-451.20127899 1122.84269867 -449.96505798 1123.24789734 -448.69137573 1123.66537476 C-442.49630034 1125.69589491 -436.3011519 1127.72619207 -430.10595703 1129.75634766 C-418.1632104 1133.67004262 -406.2210067 1137.58539382 -394.27882385 1141.50080872 C-392.37717026 1142.12428846 -390.47551192 1142.74775373 -388.57385254 1143.37121582 C-368.27279627 1150.02699297 -347.97309518 1156.68689497 -327.67388153 1163.34828949 C-303.04206175 1171.43156526 -303.04206175 1171.43156526 -278.40843201 1179.50932312 C-272.10943847 1181.57411917 -265.81090909 1183.64031149 -259.51342773 1185.7097168 C-247.70380187 1189.5886498 -235.88980084 1193.45184551 -224.05903625 1197.26576233 C-219.15015899 1198.8484004 -214.2436425 1200.4383014 -209.33762646 1202.0297842 C-206.00034034 1203.11176068 -202.66184889 1204.18961908 -199.31997681 1205.25735474 C-158.05778216 1218.44715658 -158.05778216 1218.44715658 -148.75 1234.9296875 C-142.91003123 1247.33962113 -141.30771802 1261.42709697 -145.25 1274.6875 C-150.29264848 1287.44346794 -160.34256676 1296.59305213 -170.55859375 1305.34375 C-173.14242708 1307.5814919 -175.66364805 1309.88235875 -178.1875 1312.1875 C-181.95100521 1315.62014761 -185.74879351 1319.0030501 -189.59375 1322.34375 C-192.15169027 1324.59626457 -194.6692898 1326.89067092 -197.1875 1329.1875 C-200.97684126 1332.64325413 -204.79833698 1336.0527289 -208.66796875 1339.41796875 C-212.71416497 1342.96328188 -216.69425421 1346.58281855 -220.6875 1350.1875 C-222.56224528 1351.87528298 -224.43723662 1353.56279269 -226.3125 1355.25 C-227.56933594 1356.38115234 -227.56933594 1356.38115234 -228.8515625 1357.53515625 C-229.45742188 1358.08042969 -230.06328125 1358.62570312 -230.6875 1359.1875 C-227.59312406 1362.50719458 -224.20679577 1365.07266158 -220.4375 1367.5625 C-219.80199219 1367.9838623 -219.16648437 1368.40522461 -218.51171875 1368.83935547 C-209.35929197 1374.81195547 -199.87200255 1380.2430955 -190.37988281 1385.65283203 C-188.79289804 1386.55741911 -187.20798296 1387.46568355 -185.62792969 1388.38232422 C-121.14295347 1425.73926136 -42.47079852 1439.38963464 31.1875 1439.4375 C32.13593781 1439.43817474 33.08437561 1439.43884949 34.06155396 1439.43954468 C102.69323832 1439.36292684 177.88629557 1426.42357193 230.00390625 1378.30859375 C232.12745436 1376.35751655 234.29925681 1374.48781718 236.5 1372.625 C240.51063487 1369.10074431 243.96331685 1365.3433265 247.3125 1361.1875 C247.73515137 1360.66607422 248.15780273 1360.14464844 248.59326172 1359.60742188 C282.51697207 1317.3356213 295.46912222 1261.696166 290.3125 1208.1875 C285.5144425 1165.62566149 264.63599716 1128.82390411 231.19311523 1102.09594727 C216.98888857 1091.1346641 201.54715843 1081.77106865 185.31689453 1074.14111328 C183.23697065 1073.15156606 181.17904354 1072.12424797 179.12109375 1071.08984375 C140.27708368 1051.79036824 97.27600833 1040.4425519 55.3125 1030.1875 C54.37611694 1029.95840942 53.43973389 1029.72931885 52.47497559 1029.49328613 C16.9923074 1020.84981922 -18.78684582 1013.61833934 -54.5625 1006.3125 C-250.53861053 966.28951775 -250.53861053 966.28951775 -363.6875 918.1875 C-364.75629395 917.69636719 -365.82508789 917.20523438 -366.92626953 916.69921875 C-402.3911422 900.30502849 -436.45347597 880.0274889 -466.6875 855.1875 C-467.2345459 854.73810059 -467.7815918 854.28870117 -468.34521484 853.82568359 C-487.14784731 838.29546943 -505.72675579 821.5054467 -520.6875 802.1875 C-522.28828117 800.30960881 -523.89266285 798.43478283 -525.5 796.5625 C-552.28771466 764.39240063 -571.41245491 726.30235415 -585.6875 687.1875 C-586.01492188 686.29337402 -586.34234375 685.39924805 -586.6796875 684.47802734 C-607.96905895 625.5797075 -614.97438795 560.44538992 -613.6875 498.1875 C-613.66961426 497.24922363 -613.65172852 496.31094727 -613.63330078 495.34423828 C-612.54364393 445.00527336 -605.13957654 395.1664512 -589.6875 347.1875 C-589.18162354 345.60026123 -589.18162354 345.60026123 -588.66552734 343.98095703 C-571.22422475 289.8028244 -543.05172125 237.73904739 -505.26953125 195.04052734 C-504.10770349 193.67968279 -502.979414 192.29002003 -501.87109375 190.88525391 C-495.56465951 182.91182284 -488.57217783 175.76673293 -481.36816406 168.60742188 C-479.31601459 166.56599623 -477.27478579 164.51408861 -475.234375 162.4609375 C-468.74224102 155.96261141 -462.24140813 149.70629699 -455.00219727 144.03686523 C-452.5595262 142.08525324 -450.28108054 140.012151 -448 137.875 C-441.96199337 132.38849634 -435.44257812 127.59619098 -428.86572266 122.78320312 C-426.67908403 121.1813347 -424.50158217 119.5675698 -422.32421875 117.953125 C-346.06946362 61.75965067 -253.94267688 29.63699209 -55.6875 1.1875 C-54.85948883 1.14017731 -54.03147766 1.09285461 -53.17837524 1.0440979 C-35.45841014 0.06079804 -17.741084 -0.01439334 0 0 Z " fill="#EF5225" transform="translate(1066.6875,1355.8125)"/>
<path d="M0 0 C14.39961567 12.54729145 17.19617176 30.64146491 21.2421875 48.36328125 C21.8389979 50.92886742 22.43695559 53.49416019 23.03640747 56.05912781 C24.32285879 61.57327864 25.59938218 67.08964843 26.86914062 72.60766602 C28.90605884 81.45862929 30.96341164 90.30478155 33.0234375 99.15039062 C33.7325062 102.19616369 34.44140379 105.24197654 35.15020752 108.28781128 C35.32709901 109.0479128 35.5039905 109.80801431 35.68624234 110.59114921 C36.95551029 116.04656057 38.22191898 121.50263111 39.48699951 126.95901489 C44.31169929 147.76646499 49.1723949 168.56513279 54.0703125 189.35546875 C54.23427214 190.05149838 54.39823178 190.747528 54.56715989 191.46464944 C56.21920012 198.47755814 57.872039 205.49027838 59.52548367 212.50285608 C62.84588597 226.58549628 66.15984396 240.66965249 69.47357965 254.75386262 C69.97214669 256.87283431 70.47075705 258.9917958 70.96938133 261.11075401 C76.08825575 282.86414053 81.20046709 304.61908732 86.30859375 326.375 C86.4791629 327.10145391 86.64973206 327.82790782 86.82546997 328.57637548 C90.02009989 342.18232382 93.21435522 355.78836008 96.40777588 369.39459229 C105.52234115 408.23013607 105.52234115 408.23013607 114.68359375 447.0546875 C114.89363226 447.94264259 115.10367077 448.83059769 115.32007408 449.74546051 C117.19331347 457.66461603 119.06752258 465.58353445 120.94896412 473.50074577 C121.43104199 475.53037972 121.91229805 477.56020643 122.39320374 479.59011841 C122.95580086 481.96426715 123.51989286 484.33806248 124.08592224 486.71139526 C127.75357802 502.20884464 129.20858673 517.52677758 120.5703125 531.77734375 C112.54418245 543.1377119 102.82936687 551.2033947 89 554 C78.1242465 555.60823457 68.51398146 553.9079838 58.14453125 550.52734375 C56.46414009 549.99472176 56.46414009 549.99472176 54.74980164 549.45133972 C51.16301247 548.31161421 47.58156435 547.15602645 44 546 C41.6292448 545.24421715 39.25815155 544.48949387 36.88671875 543.73583984 C30.89944505 541.82965794 24.9171055 539.90853435 18.93676758 537.98071289 C15.27681315 536.80099703 11.61600827 535.62394973 7.95507812 534.44726562 C-3.71716756 530.69225345 -15.38315785 526.92360157 -27 523 C-27.21930176 523.77633789 -27.43860352 524.55267578 -27.66455078 525.35253906 C-29.46439478 530.26838354 -31.9051321 534.74682918 -34.3671875 539.359375 C-38.69272181 547.55515009 -42.93907739 555.7826359 -47.0703125 564.078125 C-47.56924011 565.07928345 -48.06816772 566.08044189 -48.58221436 567.11193848 C-50.09810536 570.1571522 -51.61193142 573.20338302 -53.125 576.25 C-64.40140648 598.95436786 -64.40140648 598.95436786 -69.9296875 609.359375 C-76.17915949 621.12547572 -82.07111664 633.07013916 -88 645 C-94.29674547 657.6700582 -100.59300135 670.32911165 -107.23278809 682.82348633 C-112.85675015 693.44608683 -118.15228303 704.23660718 -123.5 715 C-129.62121989 727.32022835 -135.75269634 739.62297221 -142.20727539 751.77246094 C-147.83847125 762.41278236 -153.14380369 773.21954074 -158.5 784 C-170.45586383 808.063663 -170.45586383 808.063663 -175.96875 818.4375 C-182.20637988 830.17691288 -188.0840814 842.09622632 -194 854 C-200.29674547 866.6700582 -206.59300135 879.32911165 -213.23278809 891.82348633 C-218.85675015 902.44608683 -224.15228303 913.23660718 -229.5 924 C-241.45586383 948.063663 -241.45586383 948.063663 -246.96875 958.4375 C-253.20637988 970.17691288 -259.0840814 982.09622632 -265 994 C-271.29674547 1006.6700582 -277.59300135 1019.32911165 -284.23278809 1031.82348633 C-289.85675015 1042.44608683 -295.15228303 1053.23660718 -300.5 1064 C-312.45586383 1088.063663 -312.45586383 1088.063663 -317.96875 1098.4375 C-324.20637988 1110.17691288 -330.0840814 1122.09622632 -336 1134 C-342.29674547 1146.6700582 -348.59300135 1159.32911165 -355.23278809 1171.82348633 C-360.85675015 1182.44608683 -366.15228303 1193.23660718 -371.5 1204 C-383.45586383 1228.063663 -383.45586383 1228.063663 -388.96875 1238.4375 C-395.20637988 1250.17691288 -401.0840814 1262.09622632 -407 1274 C-413.29674547 1286.6700582 -419.59300135 1299.32911165 -426.23278809 1311.82348633 C-431.85675015 1322.44608683 -437.15228303 1333.23660718 -442.5 1344 C-448.62121989 1356.32022835 -454.75269634 1368.62297221 -461.20727539 1380.77246094 C-466.83847125 1391.41278236 -472.14380369 1402.21954074 -477.5 1413 C-489.45586383 1437.063663 -489.45586383 1437.063663 -494.96875 1447.4375 C-501.20637988 1459.17691288 -507.0840814 1471.09622632 -513 1483 C-519.29674547 1495.6700582 -525.59300135 1508.32911165 -532.23278809 1520.82348633 C-537.85675015 1531.44608683 -543.15228303 1542.23660718 -548.5 1553 C-560.45586383 1577.063663 -560.45586383 1577.063663 -565.96875 1587.4375 C-572.20637988 1599.17691288 -578.0840814 1611.09622632 -584 1623 C-590.29674547 1635.6700582 -596.59300135 1648.32911165 -603.23278809 1660.82348633 C-608.85675015 1671.44608683 -614.15228303 1682.23660718 -619.5 1693 C-631.45586383 1717.063663 -631.45586383 1717.063663 -636.96875 1727.4375 C-643.20637988 1739.17691288 -649.0840814 1751.09622632 -655 1763 C-661.29674547 1775.6700582 -667.59300135 1788.32911165 -674.23278809 1800.82348633 C-679.85675015 1811.44608683 -685.15228303 1822.23660718 -690.5 1833 C-696.62121989 1845.32022835 -702.75269634 1857.62297221 -709.20727539 1869.77246094 C-714.83847125 1880.41278236 -720.14380369 1891.21954074 -725.5 1902 C-737.45586383 1926.063663 -737.45586383 1926.063663 -742.96875 1936.4375 C-749.20637988 1948.17691288 -755.0840814 1960.09622632 -761 1972 C-767.29674547 1984.6700582 -773.59300135 1997.32911165 -780.23278809 2009.82348633 C-785.85675015 2020.44608683 -791.15228303 2031.23660718 -796.5 2042 C-802.73987596 2054.55904839 -808.99583532 2067.09682059 -815.57737732 2079.48094177 C-818.05345835 2084.15452296 -820.43434475 2088.8607048 -822.72265625 2093.62890625 C-823.28146484 2094.78583984 -823.84027344 2095.94277344 -824.41601562 2097.13476562 C-825.52813689 2099.45003587 -826.62945003 2101.77052427 -827.72070312 2104.09570312 C-834.36247206 2117.74012324 -844.22317222 2128.85511374 -858.640625 2134.2734375 C-875.6521048 2139.51207201 -893.57030211 2134.43762786 -910.31640625 2130.640625 C-912.9214736 2130.06495581 -915.5268408 2129.49085828 -918.13269043 2128.91876221 C-923.70625176 2127.69210648 -929.27674075 2126.45228386 -934.84524536 2125.20288086 C-943.64812877 2123.22789726 -952.45623559 2121.27691403 -961.26538086 2119.33007812 C-964.28415659 2118.66270018 -967.30290347 2117.99519188 -970.32164001 2117.32763672 C-971.07507024 2117.16105025 -971.82850046 2116.99446379 -972.6047619 2116.82282925 C-978.00491397 2115.62850296 -983.40420198 2114.43031742 -988.80323792 2113.23095703 C-1009.78233606 2108.57275126 -1030.78006639 2104.0073264 -1051.79260182 2099.50248623 C-1055.54108212 2098.69848993 -1059.28920196 2097.89281744 -1063.03733826 2097.08721924 C-1065.97987789 2096.45490471 -1068.9224308 2095.82265203 -1071.86499023 2095.19042969 C-1072.58449321 2095.03583676 -1073.30399618 2094.88124383 -1074.04530227 2094.72196627 C-1081.87819506 2093.03924307 -1089.71186815 2091.36031872 -1097.54763794 2089.69104004 C-1104.22360306 2088.26881719 -1110.89695819 2086.83485593 -1117.56880188 2085.39342499 C-1120.00823336 2084.86851478 -1122.44854037 2084.34765377 -1124.88978577 2083.83124542 C-1144.75832071 2079.62591849 -1163.21468963 2075.68688659 -1175.34375 2057.81640625 C-1180.32343443 2049.34859382 -1182.18965438 2041.56047192 -1182.25 2031.875 C-1182.270625 2031.070625 -1182.29125 2030.26625 -1182.3125 2029.4375 C-1182.37992558 2018.88539623 -1178.54663471 2010.46600695 -1173.625 2001.3125 C-1173.09680664 2000.31484619 -1172.56861328 1999.31719238 -1172.02441406 1998.28930664 C-1167.86668525 1990.48774626 -1163.52703828 1982.7941603 -1159.13916016 1975.12036133 C-1154.60517968 1967.15947293 -1150.28538486 1959.09617223 -1146 1951 C-1141.30743371 1942.13604753 -1136.54724269 1933.32951298 -1131.5625 1924.625 C-1125.95589817 1914.83101135 -1120.66070881 1904.88866984 -1115.39675903 1894.90826416 C-1110.40285833 1885.44600522 -1105.27351529 1876.0845936 -1099.953125 1866.80078125 C-1095.29410746 1858.62443612 -1090.88960991 1850.32277807 -1086.5 1842 C-1081.14055699 1831.83840119 -1075.66603645 1821.76952319 -1069.953125 1811.80078125 C-1065.29410604 1803.62443362 -1060.88965768 1795.32275502 -1056.5 1787 C-1051.11609405 1776.7925304 -1045.61840954 1766.6758345 -1039.8828125 1756.66015625 C-1035.43305978 1748.85376624 -1031.20386803 1740.94033575 -1027 1733 C-1022.30720136 1724.13616399 -1017.54724879 1715.32952364 -1012.5625 1706.625 C-1007.34765006 1697.51534985 -1002.39658089 1688.28290337 -997.5 1679 C-992.5164197 1669.55354917 -987.47580837 1660.15591275 -982.1875 1650.875 C-981.6706665 1649.96645264 -981.15383301 1649.05790527 -980.62133789 1648.12182617 C-979.59863543 1646.32477567 -978.57576957 1644.52781814 -977.55273438 1642.73095703 C-964.10338227 1619.07616888 -955.78802621 1601.79865884 -963.10153294 1574.53215694 C-963.93548756 1571.52352763 -964.79164642 1568.52172948 -965.6484375 1565.51953125 C-966.25132543 1563.34178657 -966.85211452 1561.16345993 -967.45097351 1558.98460388 C-968.73138416 1554.34295022 -970.02596765 1549.70558979 -971.33230591 1545.07116699 C-973.41267682 1537.69070416 -975.46132314 1530.30165748 -977.50561523 1522.91113281 C-980.30953976 1512.78406435 -983.12631188 1502.66066157 -985.95166016 1492.53955078 C-989.59445981 1479.48368733 -993.19221645 1466.41592021 -996.76171875 1453.33984375 C-997.02552589 1452.37360895 -997.28933304 1451.40737415 -997.56113434 1450.41185951 C-998.61406933 1446.55468203 -999.66666901 1442.69741335 -1000.71867371 1438.83998203 C-1003.35131942 1429.18711606 -1005.99410714 1419.53703573 -1008.63767242 1409.88715553 C-1009.98292771 1404.97630077 -1011.32766258 1400.06530352 -1012.67236328 1395.15429688 C-1012.94262077 1394.16729451 -1013.21287827 1393.18029215 -1013.49132538 1392.16338062 C-1018.5495217 1373.68937432 -1023.60258855 1355.21396381 -1028.65655518 1336.73880005 C-1031.71487715 1325.5588931 -1034.77343186 1314.37904981 -1037.83203125 1303.19921875 C-1038.13250618 1302.10091673 -1038.43298111 1301.00261471 -1038.74256134 1299.87103081 C-1045.22280343 1276.18446958 -1051.70482447 1252.49839533 -1058.1875 1228.8125 C-1058.45305695 1227.8422287 -1058.71861389 1226.8719574 -1058.99221802 1225.87228394 C-1061.3954468 1217.0915749 -1063.79870603 1208.31087421 -1066.20199585 1199.53018188 C-1069.96421643 1185.78447851 -1073.72629931 1172.03873744 -1077.48828125 1158.29296875 C-1077.75675558 1157.31200037 -1078.02522991 1156.33103199 -1078.30183983 1155.3203373 C-1079.65855467 1150.36308467 -1081.01526723 1145.40583141 -1082.37197876 1140.44857788 C-1084.81053583 1131.53840092 -1087.24911313 1122.62822949 -1089.68768883 1113.71805763 C-1091.04179337 1108.77037198 -1092.39589662 1103.82268597 -1093.75 1098.875 C-1094.29166666 1096.89583333 -1094.83333333 1094.91666666 -1095.375 1092.9375 C-1105.125 1057.3125 -1114.875 1021.6875 -1124.625 986.0625 C-1125.02718608 984.59297394 -1125.02718608 984.59297394 -1125.43749714 983.09376049 C-1125.97917337 981.11455886 -1126.52084957 979.13535723 -1127.06252575 977.15615559 C-1128.41654592 972.20877377 -1129.77056652 967.26139207 -1131.12458801 962.31401062 C-1133.56383783 953.401374 -1136.00308459 944.48873654 -1138.4423151 935.57609463 C-1139.79878083 930.61973958 -1141.15524912 925.66338523 -1142.51171875 920.70703125 C-1142.91445291 919.2354956 -1142.91445291 919.2354956 -1143.3253231 917.73423195 C-1147.0820994 904.00750359 -1150.83901696 890.28081391 -1154.59602737 876.55414963 C-1166.53983972 832.91598079 -1178.48128828 789.27716617 -1190.41986847 745.63756561 C-1198.80563119 714.98476314 -1207.19242211 684.33224249 -1215.58154297 653.68035889 C-1216.91243405 648.81757793 -1218.24325627 643.95477814 -1219.57405663 639.09197235 C-1224.80480362 619.97866138 -1230.03647396 600.86560407 -1235.27082825 581.75328064 C-1237.32938808 574.23676269 -1239.38754279 566.72013382 -1241.44560909 559.20348072 C-1242.83786312 554.11868518 -1244.23033336 549.03394909 -1245.62338257 543.94937134 C-1246.14891017 542.03110888 -1246.6744331 540.11284514 -1247.19995117 538.19458008 C-1247.45600537 537.25999183 -1247.71205957 536.32540358 -1247.97587299 535.36249447 C-1249.2255498 530.7999624 -1250.4736268 526.23700317 -1251.71821594 521.67308044 C-1251.95716237 520.79691039 -1252.1961088 519.92074034 -1252.44229603 519.01801968 C-1252.91847481 517.27194901 -1253.3945998 515.52586367 -1253.87066936 513.77976322 C-1255.30292784 508.53307006 -1256.74953529 503.29056436 -1258.2069397 498.05080223 C-1259.1505915 494.6532956 -1260.08695725 491.25380542 -1261.02209473 487.85394669 C-1261.45759168 486.2775347 -1261.89634883 484.70201886 -1262.33874512 483.12752914 C-1266.94855734 466.71276095 -1269.43901094 450.77040169 -1261 435 C-1253.41189403 423.18310581 -1242.91360104 414.79594393 -1229.21562958 411.44780815 C-1225.63589098 410.72429546 -1222.08336975 410.54593052 -1218.44042969 410.40504456 C-1217.62269451 410.36798041 -1216.80495934 410.33091626 -1215.96244431 410.29272896 C-1205.63086052 409.85323184 -1195.2919058 409.68850317 -1184.953125 409.51928711 C-1182.70484439 409.48000829 -1180.45656875 409.44044392 -1178.20829773 409.40061951 C-1172.15099497 409.29422171 -1166.093628 409.19205191 -1160.03623581 409.09088969 C-1154.93693154 409.00530599 -1149.83766571 408.91754258 -1144.73839855 408.82977968 C-1131.97996632 408.6102057 -1119.22147114 408.39463386 -1106.46293771 408.18103994 C-1096.17624188 408.00872719 -1085.8896141 407.83275454 -1075.60302734 407.65405273 C-1063.5673373 407.44496588 -1051.53160774 407.23847226 -1039.49581337 407.03546149 C-1033.15941278 406.92857536 -1026.82303224 406.82076353 -1020.48669434 406.71021843 C-1006.77113498 406.47186395 -993.05560101 406.2552303 -979.33905029 406.08231735 C-975.11547887 406.02906472 -970.89213113 405.96797644 -966.66876221 405.9005928 C-961.66655923 405.82220718 -956.66454626 405.76531501 -951.66189766 405.72478783 C-949.84384489 405.70696781 -948.02584271 405.68232328 -946.20799065 405.64996135 C-929.66222087 405.36443076 -915.26462453 408.01606093 -902.75 419.75 C-893.88560414 429.15163197 -890.48156073 440.15393486 -887.7487793 452.48364258 C-887.54224039 453.39765146 -887.33570148 454.31166035 -887.12290382 455.25336647 C-886.43568396 458.29946552 -885.75500105 461.34698756 -885.07421875 464.39453125 C-884.57914367 466.59434103 -884.08362253 468.79405046 -883.58769226 470.9936676 C-882.51617386 475.74990808 -881.44742464 480.50675918 -880.38079834 485.26409912 C-878.65604928 492.95597644 -876.92474205 500.64636949 -875.19189453 508.33642578 C-874.89276203 509.66401153 -874.59363001 510.99159739 -874.29449844 512.31918335 C-873.84042028 514.33441473 -873.38633112 516.34964362 -872.93220782 518.36486483 C-872.00342521 522.48657989 -871.07512789 526.60840391 -870.14719748 530.73031092 C-865.69577108 550.50333674 -861.22325276 570.27148707 -856.73046875 590.03515625 C-856.58036244 590.69547639 -856.43025613 591.35579653 -856.27560115 592.03612638 C-854.44090406 600.10656282 -852.60519801 608.17676963 -850.7691322 616.24689478 C-848.0896935 628.02413066 -845.41202687 639.80176963 -842.73415947 651.57936287 C-842.09316159 654.39854615 -841.45213447 657.21772278 -840.81108284 660.03689384 C-835.88206324 681.71356303 -830.95848359 703.39146301 -826.0390625 725.0703125 C-825.87368366 725.79910158 -825.70830483 726.52789065 -825.53791451 727.27876425 C-823.52809962 736.13567739 -821.51848627 744.99263627 -819.50892776 753.84960759 C-816.33051706 767.85815034 -813.15170825 781.86660277 -809.97265625 795.875 C-809.72500224 796.96628071 -809.72500224 796.96628071 -809.47234511 798.07960749 C-804.35787865 820.61616632 -799.24086785 843.15214634 -794.12109375 865.6875 C-793.96034678 866.39506124 -793.7995998 867.10262249 -793.6339817 867.83162498 C-790.14930312 883.17007893 -786.66356311 898.50829066 -783.17455053 913.84575939 C-781.95556613 919.20435405 -780.73669946 924.56297549 -779.51783943 929.92159843 C-779.21739251 931.24246381 -778.91693554 932.56332691 -778.61646843 933.8841877 C-774.67393794 951.21568913 -770.74200089 968.54954836 -766.82392883 985.88659668 C-764.93553397 994.24224467 -763.04328134 1002.59701741 -761.14993954 1010.95154572 C-759.66189594 1017.51921954 -758.17895688 1024.08801646 -756.70011616 1030.65776825 C-755.80253735 1034.63937248 -754.89992211 1038.61982217 -753.99586678 1042.59996033 C-753.5849976 1044.41356914 -753.17620047 1046.22764895 -752.76974297 1048.04225159 C-747.21530374 1073.81435598 -747.21530374 1073.81435598 -730 1093 C-718.82369882 1099.66575539 -705.52327312 1102.90185337 -692.64453125 1099.8125 C-678.65160382 1095.51334357 -669.45793563 1088.64346222 -662 1076 C-659.35158135 1070.95556725 -656.8875254 1065.8304872 -654.4375 1060.6875 C-653.72752058 1059.209937 -653.01714633 1057.73256365 -652.30639648 1056.25537109 C-647.44471336 1046.12808514 -642.70306822 1035.94737598 -638.00561523 1025.74291992 C-633.27715055 1015.50671642 -628.34609982 1005.3745055 -623.39776611 995.24328613 C-618.09660504 984.38410938 -612.93404553 973.4742761 -607.8828125 962.49609375 C-603.70250249 953.44048422 -599.37155383 944.46447179 -595 935.5 C-590.06413256 925.37814806 -585.20962776 915.22964034 -580.5 905 C-575.46245625 894.05810323 -570.24872199 883.21279843 -564.96923828 872.38623047 C-560.3790678 862.96820371 -555.88167155 853.51729656 -551.5 844 C-546.46245625 833.05810323 -541.24872199 822.21279843 -535.96923828 811.38623047 C-531.3790678 801.96820371 -526.88167155 792.51729656 -522.5 783 C-517.46245625 772.05810323 -512.24872199 761.21279843 -506.96923828 750.38623047 C-502.3790678 740.96820371 -497.88167155 731.51729656 -493.5 722 C-488.46245625 711.05810323 -483.24872199 700.21279843 -477.96923828 689.38623047 C-473.3790678 679.96820371 -468.88167155 670.51729656 -464.5 661 C-459.46245625 650.05810323 -454.24872199 639.21279843 -448.96923828 628.38623047 C-444.3790678 618.96820371 -439.88167155 609.51729656 -435.5 600 C-430.46245625 589.05810323 -425.24872199 578.21279843 -419.96923828 567.38623047 C-415.3790678 557.96820371 -410.88167155 548.51729656 -406.5 539 C-401.46245625 528.05810323 -396.24872199 517.21279843 -390.96923828 506.38623047 C-385.8338824 495.84960241 -380.84090825 485.25911541 -375.94018555 474.61083984 C-371.3535209 464.68001486 -366.57928278 454.84607827 -361.78320312 445.01516724 C-355.97604646 433.10391287 -350.38707127 421.10796067 -345 409 C-346.22726807 408.75088867 -347.45453613 408.50177734 -348.71899414 408.24511719 C-354.76576984 406.89796877 -360.60851995 404.99121327 -366.49609375 403.078125 C-368.27742455 402.50442169 -368.27742455 402.50442169 -370.09474182 401.91912842 C-373.24021078 400.90512712 -376.38449103 399.88754495 -379.52825928 398.86828613 C-382.66812626 397.85147553 -385.80977453 396.84019584 -388.95117188 395.828125 C-395.97134287 393.56399786 -402.987117 391.28659537 -410 389 C-410.96269806 388.68641541 -411.92539612 388.37283081 -412.91726685 388.04974365 C-415.43581674 387.2274169 -417.95268196 386.40019724 -420.46875 385.5703125 C-421.17515121 385.33959045 -421.88155243 385.10886841 -422.60935974 384.87115479 C-434.68648386 380.86012369 -444.55958859 373.9651609 -450.71484375 362.59765625 C-451.13894531 361.74042969 -451.56304688 360.88320312 -452 360 C-452.62068359 358.82244141 -452.62068359 358.82244141 -453.25390625 357.62109375 C-457.92622299 347.21827007 -457.67014209 333.27825374 -454.5 322.4375 C-449.63388729 310.44901471 -440.89377131 302.76951225 -431 295 C-430.44006348 294.55688477 -429.88012695 294.11376953 -429.30322266 293.65722656 C-426.43389505 291.38729909 -423.55407346 289.13135405 -420.66796875 286.8828125 C-416.73550997 283.80782311 -412.86648847 280.65728392 -409 277.5 C-403.47674994 272.99222351 -397.90815183 268.55157061 -392.2890625 264.1640625 C-387.81563292 260.66223753 -383.40132798 257.09188836 -379 253.5 C-373.47660315 248.99240027 -367.90815564 244.55157358 -362.2890625 240.1640625 C-357.81563292 236.66223753 -353.40132798 233.09188836 -349 229.5 C-343.47660315 224.99240027 -337.90815564 220.55157358 -332.2890625 216.1640625 C-327.81563292 212.66223753 -323.40132798 209.09188836 -319 205.5 C-313.47660315 200.99240027 -307.90815564 196.55157358 -302.2890625 192.1640625 C-297.81563292 188.66223753 -293.40132798 185.09188836 -289 181.5 C-283.47660315 176.99240027 -277.90815564 172.55157358 -272.2890625 168.1640625 C-267.81563292 164.66223753 -263.40132798 161.09188836 -259 157.5 C-253.47660315 152.99240027 -247.90815564 148.55157358 -242.2890625 144.1640625 C-237.81563025 140.66223545 -233.40142446 137.09177321 -229 133.5 C-221.17655867 127.11846002 -213.24927935 120.87800891 -205.29101562 114.66601562 C-197.78216508 108.80106395 -190.34337472 102.86044974 -182.96142578 96.83642578 C-178.11467162 92.88769507 -173.2164174 89.0114492 -168.2890625 85.1640625 C-163.81563292 81.66223753 -159.40132798 78.09188836 -155 74.5 C-149.47660315 69.99240027 -143.90815564 65.55157358 -138.2890625 61.1640625 C-133.81563292 57.66223753 -129.40132798 54.09188836 -125 50.5 C-119.47660315 45.99240027 -113.90815564 41.55157358 -108.2890625 37.1640625 C-103.12848405 33.12433367 -98.04903597 28.98855951 -92.97192383 24.84472656 C-88.00830127 20.80069432 -82.99443546 16.82664037 -77.9440918 12.89160156 C-74.34106968 10.0778227 -70.81600418 7.18778255 -67.3125 4.25 C-46.72632588 -12.59323337 -22.43683765 -16.01766143 0 0 Z " fill="#EF5225" transform="translate(7379,934)"/>
<path d="M0 0 C10.46429455 9.82768348 14.41478488 21.84533019 16.54443359 35.66015625 C16.71064901 36.69725015 16.87686443 37.73434404 17.04811668 38.80286503 C17.60705901 42.30235784 18.15500815 45.80348401 18.703125 49.3046875 C19.11100863 51.87286272 19.51958048 54.44092871 19.92877197 57.00889587 C20.82918105 62.66651641 21.72389639 68.32501511 22.61505127 73.98410034 C23.96620396 82.56377168 25.32647999 91.14197987 26.68865561 99.71990716 C28.93898038 113.89172627 31.18374174 128.06442057 33.4253428 142.2376219 C37.46480096 167.77754238 41.52088095 193.31481127 45.57966208 218.85166717 C47.26857732 229.47814376 48.95715616 240.10467381 50.64575195 250.73120117 C50.83549831 251.92527466 51.02524467 253.11934815 51.22074091 254.34960568 C55.58932248 281.84151065 59.95334464 309.33413895 64.31677079 336.82686257 C66.14977859 348.37611806 67.98284693 359.92536393 69.81591797 371.47460938 C70.11854669 373.3813276 70.11854669 373.3813276 70.42728913 375.32656538 C74.98021141 404.01218158 79.53478519 432.69753546 84.08984375 461.3828125 C84.28202689 462.59307814 84.47421002 463.80334379 84.67221689 465.05028415 C86.99224772 479.66054524 89.31235253 494.27079458 91.63249457 508.88103801 C92.98317088 517.38643713 94.33381741 525.89184097 95.68444824 534.39724731 C102.49116656 577.26153695 109.29822497 620.12577256 116.10693359 662.98974609 C116.37854138 664.69964999 116.37854138 664.69964999 116.65563619 666.4440974 C118.65026294 679.00116793 120.64508385 691.55820758 122.64027405 704.1151886 C123.35841609 708.63497806 124.07654925 713.15476893 124.79467773 717.67456055 C124.97172796 718.78887203 125.14877818 719.90318352 125.33119357 721.05126202 C127.61683944 735.43691628 129.90086365 749.82282681 132.18321323 764.2090044 C133.90533667 775.06392015 135.6282529 785.91871001 137.3515625 796.7734375 C137.52114369 797.84166363 137.69072488 798.90988975 137.8654449 800.01048636 C142.88026572 831.59769496 147.93067846 863.17905478 153.00590312 894.75661218 C154.30748275 902.85618598 155.60681649 910.9561175 156.90457153 919.05630493 C157.08493316 920.18204237 157.26529479 921.30777981 157.45112193 922.46763051 C158.17206405 926.96784574 158.89291146 931.46807609 159.61344743 935.96835637 C161.6960785 948.97592143 163.78586121 961.98228019 165.88909197 974.98653102 C167.18443423 982.99948778 168.47086506 991.01384284 169.75034475 999.02934766 C170.48479505 1003.62838064 171.22331757 1008.22666005 171.97306061 1012.82322693 C172.6601881 1017.036172 173.33558325 1021.25083265 174.00212407 1025.46708226 C174.24335639 1026.97997066 174.48872295 1028.49220775 174.73892856 1030.00363803 C177.68735478 1047.84760018 178.74428642 1064.96757203 168.41796875 1080.77734375 C159.3810542 1092.94163996 148.20456549 1098.64667511 133.53172302 1101.10443115 C132.08934538 1101.35591435 132.08934538 1101.35591435 130.61782879 1101.61247802 C120.50825403 1103.3581422 110.37429603 1104.94937378 100.23461914 1106.50878906 C98.19659077 1106.82442664 96.15859746 1107.14029067 94.12063599 1107.45635986 C88.66083807 1108.30217426 83.20044007 1109.14404429 77.73981404 1109.98449421 C74.31661561 1110.51138774 70.89351047 1111.03888373 67.47042656 1111.56652069 C56.72440448 1113.22259281 45.97796785 1114.87593975 35.2309714 1116.52567697 C22.88692182 1118.42064544 10.54438104 1120.32508291 -1.79697889 1122.23748803 C-11.38872015 1123.72319738 -20.98177319 1125.20022939 -30.57584482 1126.67081428 C-36.28504339 1127.54613013 -41.99362815 1128.42505487 -47.70084953 1129.31317902 C-53.06182968 1130.1471999 -58.42436823 1130.97037057 -63.78824997 1131.78551483 C-65.74505548 1132.08474757 -67.70128835 1132.38775581 -69.65685081 1132.69500732 C-88.44197903 1135.64214525 -106.12157622 1137.75675791 -122.97265625 1126.87890625 C-136.48342493 1116.74020962 -141.10334168 1105.072522 -144.6953125 1088.9921875 C-147.85625352 1075.95114668 -155.1124054 1067.07039427 -166.3203125 1060.1171875 C-178.49450795 1053.42034654 -190.90368708 1052.8053754 -204.18359375 1056.15234375 C-219.69509458 1060.92362732 -230.26795451 1075.07152877 -240.6953125 1086.78515625 C-248.71960008 1095.79815069 -257.12009614 1104.30177879 -266.3203125 1112.1171875 C-267.80917969 1113.42236328 -267.80917969 1113.42236328 -269.328125 1114.75390625 C-334.07958611 1171.38069527 -415.74922661 1204.53913437 -534.3203125 1221.1171875 C-536.12822266 1221.29507813 -536.12822266 1221.29507813 -537.97265625 1221.4765625 C-631.4032441 1230.22591521 -725.68586233 1214.13189967 -840.3203125 1154.1171875 C-841.07135254 1153.63717285 -841.82239258 1153.1571582 -842.59619141 1152.66259766 C-858.20704842 1142.62058468 -873.36956016 1131.82268526 -887.390625 1119.64453125 C-890.27776637 1117.15389062 -893.22317917 1114.75536509 -896.1953125 1112.3671875 C-899.90921591 1109.34661773 -903.34080153 1106.21817292 -906.6640625 1102.77734375 C-908.37543085 1101.06193915 -910.16220658 1099.49920893 -912.0078125 1097.9296875 C-919.72234981 1091.26576811 -926.94836811 1083.92488431 -933.5546875 1076.1640625 C-935.7146467 1073.66003901 -937.95519243 1071.23721052 -940.1953125 1068.8046875 C-945.1123824 1063.4003404 -949.77924829 1057.83912743 -954.3203125 1052.1171875 C-954.84141602 1051.46331055 -955.36251953 1050.80943359 -955.89941406 1050.13574219 C-964.15642768 1039.74727789 -971.98822579 1029.17702698 -979.3203125 1018.1171875 C-979.8344873 1017.34648926 -980.34866211 1016.57579102 -980.87841797 1015.78173828 C-988.83907368 1003.82281993 -996.32244699 991.66327551 -1003.3203125 979.1171875 C-1004.08577393 977.74868652 -1004.08577393 977.74868652 -1004.86669922 976.35253906 C-1048.12984348 898.66566463 -1073.56950363 811.80352839 -1090.3203125 678.1171875 C-1090.46388184 676.34807007 -1090.46388184 676.34807007 -1090.61035156 674.54321289 C-1091.65532102 659.6954704 -1091.56613305 644.806917 -1091.5703125 629.9296875 C-1091.57075436 629.208666 -1091.57119621 628.4876445 -1091.57165146 627.74477386 C-1091.57913424 604.42154473 -1091.10351386 581.29912834 -1088.3203125 558.1171875 C-1088.19302765 557.03636902 -1088.19302765 557.03636902 -1088.06317139 555.93371582 C-1078.10494927 471.91656344 -1050.86663816 387.9809034 -1002.3203125 318.1171875 C-1001.87719727 317.47716797 -1001.43408203 316.83714844 -1000.97753906 316.17773438 C-991.63471435 302.70958759 -981.83828067 289.69750237 -971.3203125 277.1171875 C-970.88525391 276.59576172 -970.45019531 276.07433594 -970.00195312 275.53710938 C-956.25177553 259.11059256 -941.61927386 242.67158773 -925.265625 228.78125 C-922.96798318 226.81579736 -920.74158127 224.77988879 -918.5078125 222.7421875 C-895.81267823 202.31656666 -870.5038904 184.73623537 -844.3203125 169.1171875 C-843.07459473 168.37154541 -843.07459473 168.37154541 -841.80371094 167.61083984 C-780.57897934 131.19040464 -712.32544454 109.15248853 -642.1328125 98.3046875 C-640.88306641 98.1097168 -639.63332031 97.91474609 -638.34570312 97.71386719 C-617.85227467 94.69260511 -597.4564081 93.73810614 -576.7578125 93.8046875 C-575.57576233 93.80651031 -574.39371216 93.80833313 -573.17584229 93.81021118 C-555.04811811 93.85716944 -537.26856644 94.37628162 -519.3203125 97.1171875 C-518.17175781 97.28879395 -517.02320312 97.46040039 -515.83984375 97.63720703 C-479.23784502 103.26944528 -443.9286512 113.58645911 -410.3203125 129.1171875 C-408.79990326 129.80302428 -407.27909039 130.48796718 -405.7578125 131.171875 C-397.47566825 134.93938352 -389.49639727 139.10138277 -381.64526367 143.70507812 C-370.24297563 150.27127344 -358.32397195 152.87010499 -345.3828125 149.9296875 C-333.01725122 146.52876634 -322.78170153 140.12697853 -315.8828125 129.0546875 C-307.96718151 114.65450006 -308.65545525 101.44427886 -311.3203125 85.6171875 C-314.51103934 66.66685713 -314.13248338 51.40214283 -302.94921875 35.12109375 C-294.61163781 24.5160687 -282.81604124 19.65055277 -269.85678101 17.68974304 C-269.02668719 17.56168956 -268.19659337 17.43363609 -267.34134519 17.3017022 C-257.30691218 15.77701103 -247.24184587 14.48989133 -237.17431641 13.20629883 C-235.02511885 12.93021283 -232.87594975 12.65390516 -230.72680664 12.37739563 C-224.95074404 11.63509519 -219.17421907 10.89645921 -213.39753771 10.1589911 C-209.77955894 9.69700764 -206.16166861 9.23433744 -202.54380417 8.77145958 C-191.19642696 7.31980676 -179.84877464 5.8703343 -168.50069487 4.42418367 C-155.44848959 2.76086354 -142.39723225 1.0903454 -129.34674513 -0.58640116 C-119.21788989 -1.88734247 -109.08824336 -3.18199641 -98.9579767 -4.47190076 C-92.92386394 -5.24036855 -86.89010971 -6.01142329 -80.85716629 -6.78902245 C-75.18949571 -7.51935847 -69.52087802 -8.2418457 -63.85145569 -8.95845222 C-61.77956218 -9.22167634 -59.70801586 -9.48765119 -57.63686752 -9.75667572 C-36.42397275 -12.50873305 -17.69690882 -14.36011793 0 0 Z M-672.5078125 461.1171875 C-677.48880236 466.16956097 -681.97981834 471.50860239 -686.3203125 477.1171875 C-686.74425293 477.6647168 -687.16819336 478.21224609 -687.60498047 478.77636719 C-695.28106042 488.7662089 -701.98520393 499.23450099 -708.3203125 510.1171875 C-708.6822168 510.72965332 -709.04412109 511.34211914 -709.41699219 511.97314453 C-747.74519634 577.38783555 -747.76814289 659.76215083 -729.3203125 731.1171875 C-721.22942108 761.79028513 -708.92041493 791.65879597 -691.3203125 818.1171875 C-690.84094238 818.83841797 -690.36157227 819.55964844 -689.86767578 820.30273438 C-683.0119899 830.51054098 -675.54092524 839.98139456 -667.3203125 849.1171875 C-666.81999512 849.67921875 -666.31967773 850.24125 -665.80419922 850.8203125 C-631.6324482 889.13309538 -585.709248 913.64688694 -535.6328125 923.8671875 C-534.66037598 924.06602539 -533.68793945 924.26486328 -532.68603516 924.46972656 C-516.5357758 927.59731374 -500.73764921 928.49396273 -484.3203125 928.4296875 C-483.32797607 928.42753235 -482.33563965 928.4253772 -481.31323242 928.42315674 C-466.10353435 928.37022204 -451.32195554 927.81763122 -436.3203125 925.1171875 C-435.21510254 924.92914551 -434.10989258 924.74110352 -432.97119141 924.54736328 C-386.42204529 916.47113462 -342.83197407 897.55140862 -307.3203125 866.1171875 C-305.98033203 864.94349609 -305.98033203 864.94349609 -304.61328125 863.74609375 C-295.3184048 855.50777775 -287.01443793 846.87177364 -279.3203125 837.1171875 C-278.53914063 836.15296875 -277.75796875 835.18875 -276.953125 834.1953125 C-230.77017668 776.06086637 -215.71384484 699.12824423 -223.5078125 626.4921875 C-230.70440222 565.25232999 -254.36356623 506.28497291 -296.1328125 460.52734375 C-298.25297867 458.19137496 -300.3172856 455.81391875 -302.3828125 453.4296875 C-305.39182454 450.04970137 -308.50932208 447.01103013 -311.97265625 444.1015625 C-313.74409066 442.60424357 -315.48063009 441.06550209 -317.19921875 439.5078125 C-394.73229759 369.76575907 -512.54077065 366.32856312 -672.5078125 461.1171875 Z " fill="#EF5225" transform="translate(3792.3203125,1425.8828125)"/>
<path d="M0 0 C9.26589907 -0.05094258 18.53177194 -0.09103135 27.79777229 -0.11820906 C32.65047314 -0.1327733 37.50302426 -0.15229682 42.35564041 -0.1848774 C46.8568275 -0.2149258 51.35783911 -0.23056567 55.8591218 -0.23533368 C57.49712519 -0.23953718 59.13512546 -0.24885185 60.77306509 -0.26390338 C76.87216877 -0.40612183 91.16462978 1.93292056 103.34240723 13.44158936 C113.48382935 24.5700112 117.76505125 37.36029564 117.46292305 52.38208675 C117.45009832 53.0964659 117.43727359 53.81084505 117.42406023 54.54687205 C117.37912107 56.96861718 117.32595109 59.39011211 117.27285767 61.81169128 C117.23767554 63.60715365 117.20297471 65.4026255 117.16870189 67.19810545 C117.07021132 72.27377326 116.96422675 77.34926304 116.857133 82.42475565 C116.76276355 86.94270511 116.67270272 91.46073675 116.58260254 95.97877307 C116.27039995 111.62934729 115.94438324 127.27962166 115.61665522 142.92987626 C115.44287291 151.23172058 115.27049754 159.53359404 115.09804809 167.83546614 C114.14705228 213.60676401 113.18148803 259.37775098 112.21141207 305.14864796 C112.11507976 309.6939021 112.01874901 314.23915626 111.9224205 318.78441048 C111.89838716 319.91838589 111.87435382 321.05236131 111.8495922 322.22069962 C111.30083985 348.11473215 110.75461216 374.00881779 110.20875069 399.90291141 C110.08111364 405.9575068 109.95345471 412.01210173 109.82579792 418.0666967 C109.77440173 420.50437556 109.72300565 422.94205442 109.67160968 425.37973328 C109.64610252 426.58952053 109.62059537 427.79930778 109.59431527 429.04575526 C109.5167703 432.7237018 109.43922765 436.40164839 109.3616853 440.07959499 C108.78346878 467.50487249 108.20493886 494.93014337 107.62609863 522.35540771 C107.59975724 523.60349809 107.57341584 524.85158847 107.54627622 526.13749977 C106.68883231 566.76337173 105.82863485 607.38918492 104.9672768 648.01497407 C104.07592212 690.05645437 103.18795808 732.09800509 102.3039734 774.13964102 C102.17895419 780.08532233 102.05389367 786.03100278 101.9288063 791.97668266 C101.9042026 793.14619008 101.87959889 794.3156975 101.85424961 795.52064454 C101.46110259 814.20346957 101.06439617 832.88621734 100.66625263 851.5689365 C100.26625947 870.34163403 99.86996085 889.11440674 99.47732459 907.88725961 C99.26524576 918.02235195 99.05158071 928.1574044 98.83324814 938.29236412 C97.75051889 986.40950075 97.75051889 986.40950075 97.19567384 1034.53468513 C97.18455708 1036.53692823 97.16885248 1038.53915273 97.14788841 1040.54131693 C96.98480671 1057.42142755 99.42898768 1070.25888804 111.22912598 1082.99237061 C128.19687619 1098.71641138 152.61987627 1096.21382584 174.05474854 1096.74957275 C176.43514112 1096.81133389 178.81552673 1096.87336457 181.19590592 1096.93563986 C187.02653742 1097.08748866 192.85723624 1097.2365127 198.68797145 1097.38432106 C205.68043815 1097.5617435 212.67281061 1097.74276234 219.66518189 1097.9238999 C232.57579591 1098.25825229 245.48648102 1098.58977915 258.39720917 1098.91969299 C271.19593773 1099.24675727 283.99463125 1099.5751454 296.79328156 1099.90525818 C297.59125223 1099.92583952 298.3892229 1099.94642085 299.2113745 1099.96762587 C303.26508938 1100.07218716 307.31880363 1100.17677288 311.37251762 1100.28136867 C340.07465867 1101.02191729 368.77687012 1101.75970403 397.47912598 1102.49578857 C425.26886982 1103.20848054 453.05858785 1103.92216414 480.8482666 1104.63739014 C481.70293892 1104.65938639 482.55761124 1104.68138264 483.43818272 1104.70404544 C502.157091 1105.18580829 520.87599381 1105.66778346 539.59489528 1106.14981062 C545.40183491 1106.2993428 551.20877474 1106.44886714 557.01571462 1106.59838957 C560.29622413 1106.68285915 563.57673353 1106.76733309 566.85724285 1106.85181004 C588.41616509 1107.40696591 609.97511368 1107.96108561 631.53408618 1108.51428577 C641.27807559 1108.76433288 651.02205623 1109.01472129 660.76603588 1109.26514804 C667.71713364 1109.44378019 674.66823607 1109.6222262 681.61935043 1109.80021095 C682.92642994 1109.83369672 684.23350945 1109.86718249 685.58019742 1109.90168297 C688.15158444 1109.96754403 690.722973 1110.03334508 693.29436317 1110.09908283 C699.31555242 1110.25332354 705.33667797 1110.40949547 711.35769033 1110.57050323 C713.59396556 1110.63015504 715.83024231 1110.68974965 718.06652069 1110.74928284 C719.66716626 1110.79191944 719.66716626 1110.79191944 721.3001481 1110.83541739 C727.11034301 1110.9874988 732.92037545 1111.12030003 738.73158579 1111.22674087 C741.99059106 1111.28714994 745.24936556 1111.35676427 748.50816038 1111.42752856 C750.60076931 1111.46897036 752.69319712 1111.49617962 754.78603911 1111.52254343 C770.91487998 1111.8837177 784.5158755 1115.64537384 796.46740723 1126.87127686 C805.4590244 1136.74098165 809.82450258 1149.45433541 809.41648865 1162.66798401 C809.37855729 1163.96768222 809.34062593 1165.26738043 809.30154514 1166.60646343 C809.25289577 1168.04215727 809.20392287 1169.47784016 809.15466309 1170.91351318 C809.10583357 1172.45604877 809.0572494 1173.99859215 809.00888729 1175.54114246 C808.3488004 1196.06544693 807.4749928 1216.58271261 806.61451459 1237.09936881 C806.46949292 1240.5592423 806.32504807 1244.01913943 806.18076897 1247.47904396 C805.6753249 1259.59663367 805.16710447 1271.71410374 804.65661621 1283.83148193 C804.18361314 1295.06119642 803.71743125 1306.29118096 803.25418907 1317.52130193 C802.85289518 1327.24127226 802.44648065 1336.96102016 802.03621048 1346.68061572 C801.79266238 1352.4529386 801.55118388 1358.22532907 801.31506538 1363.99796104 C801.09354685 1369.41010805 800.86561856 1374.82194889 800.6329422 1380.23362732 C800.54922886 1382.20544735 800.46772935 1384.17736296 800.38873863 1386.14937782 C798.72118931 1427.64283031 798.72118931 1427.64283031 784.46740723 1442.06658936 C775.0977033 1450.28463013 764.38161023 1455.19322015 751.82276011 1455.19313514 C750.12859272 1455.19479777 750.12859272 1455.19479777 748.40019974 1455.19649399 C747.16418523 1455.19119899 745.92817073 1455.18590399 744.65470123 1455.18044853 C743.6790393 1455.17810707 743.6790393 1455.17810707 742.68366702 1455.17571831 C725.22179543 1455.13201104 707.76610186 1454.7157268 690.30966244 1454.31032952 C685.38355142 1454.19669767 680.45735088 1454.08706703 675.53116179 1453.97688186 C666.92801854 1453.78391129 658.32493512 1453.58843677 649.72188759 1453.3912468 C636.92903485 1453.09802309 624.13609553 1452.80871591 611.34313819 1452.5200966 C585.83735596 1451.94449642 560.33169828 1451.36349125 534.82606852 1450.78118024 C532.84938734 1450.73605219 532.84938734 1450.73605219 530.83277321 1450.69001245 C530.17276658 1450.6749438 529.51275995 1450.65987515 528.83275312 1450.64434986 C514.16455863 1450.30947563 499.49633853 1449.97572845 484.82811458 1449.64214704 C478.77656497 1449.50452028 472.72501607 1449.36686241 466.67346716 1449.22920501 C466.00473054 1449.21399303 465.33599393 1449.19878105 464.64699257 1449.1831081 C426.3753838 1448.31251482 388.10381196 1447.44031334 349.83231354 1446.56488228 C348.40272245 1446.53218267 346.97313137 1446.49948319 345.54354028 1446.46678383 C339.08987033 1446.31916647 332.63620056 1446.17154119 326.1825308 1446.02391556 C323.30498536 1445.9580929 320.42743989 1445.89227133 317.54989442 1445.82644997 C316.10964158 1445.79350515 314.66938875 1445.76055978 313.22913593 1445.72761387 C267.63926029 1444.68474395 222.04924328 1443.64826878 176.45910645 1442.61688232 C142.4171407 1441.84674843 108.37518806 1441.07608374 74.33338165 1440.29893303 C73.64813249 1440.28328956 72.96288332 1440.26764609 72.25686903 1440.25152857 C57.21446834 1439.90810824 42.17207888 1439.5641987 27.12969974 1439.21983588 C21.74776932 1439.09663323 16.36583799 1438.97346976 10.98390621 1438.85032656 C9.64512685 1438.81969395 8.30634753 1438.78905947 6.96756825 1438.75842312 C-15.00611875 1438.25560415 -36.97992512 1437.75826317 -58.95378774 1437.26319186 C-80.34871692 1436.78101887 -101.74349672 1436.29260872 -123.13813877 1435.7978567 C-135.84828786 1435.5041126 -148.55852293 1435.21502831 -161.2689291 1434.93262219 C-169.75817546 1434.74354063 -178.24726747 1434.54836109 -186.73626032 1434.34822287 C-191.57275926 1434.23436901 -196.40927868 1434.12315462 -201.24600488 1434.01936187 C-205.65083055 1433.92478361 -210.05540488 1433.82239889 -214.45990991 1433.7139361 C-216.03853793 1433.67640278 -217.61723521 1433.6416455 -219.19599427 1433.6101015 C-237.80056112 1433.23476084 -254.46686542 1431.87276914 -268.56774902 1418.29705811 C-276.84119201 1408.90513774 -281.6589144 1397.94260713 -281.65937513 1385.38564277 C-281.66051898 1384.22592149 -281.66166284 1383.06620022 -281.66284135 1381.87133588 C-281.65757164 1380.58294753 -281.65230192 1379.29455918 -281.64687252 1377.96712875 C-281.64454277 1376.94012221 -281.64454277 1376.94012221 -281.64216595 1375.89236806 C-281.59158449 1354.38718882 -281.15325368 1332.88443994 -280.77013158 1311.38326256 C-280.65604986 1304.94547438 -280.54525377 1298.50762943 -280.43401808 1292.06979156 C-280.23919887 1280.81451808 -280.04215682 1269.55928485 -279.84379196 1258.30407333 C-279.63122919 1246.24266421 -279.41990557 1234.18123429 -279.2100544 1222.11977768 C-279.19673618 1221.35433917 -279.18341796 1220.58890067 -279.16969616 1219.80026705 C-279.10177394 1215.8962539 -279.03387132 1211.9922404 -278.96597545 1208.08822678 C-278.47588798 1179.91056652 -277.9831022 1151.73295397 -277.48884773 1123.55536652 C-276.99915535 1095.6374755 -276.51059063 1067.71956512 -276.02352715 1039.80162811 C-276.00835814 1038.93218967 -275.99318913 1038.06275123 -275.97756045 1037.16696617 C-275.83898627 1029.22432863 -275.70042479 1021.28169087 -275.56187899 1013.33905284 C-275.21747606 993.59495811 -274.87289222 973.85086655 -274.52818203 954.10677719 C-274.50463946 952.75831045 -274.50463946 952.75831045 -274.48062129 951.38260195 C-273.71789939 907.6965099 -272.95307667 864.01045466 -272.18811035 820.32440186 C-271.12634304 759.6883611 -270.06600343 699.05229562 -269.00744629 638.41619873 C-268.97453101 636.53077405 -268.94161569 634.64534938 -268.90870033 632.7599247 C-268.64649931 617.74075645 -268.38430478 602.72158808 -268.12212221 587.70241951 C-266.98782132 522.72388056 -265.8525119 457.74535922 -264.71686863 392.76684372 C-264.56439648 384.04278244 -264.41192924 375.31872107 -264.25947657 366.59465945 C-263.55700082 326.39575048 -262.85423271 286.19684666 -262.15035874 245.99796215 C-262.09574923 242.87911553 -262.04114048 239.76026891 -261.98653221 236.64142227 C-261.97313194 235.87610445 -261.95973166 235.11078663 -261.94592532 234.32227736 C-261.7356667 222.31359299 -261.52569899 210.30490355 -261.31585557 198.29621192 C-261.10837545 186.42320122 -260.90055421 174.55019652 -260.69239448 162.67719772 C-260.58153623 156.35339662 -260.4708048 150.02959339 -260.3604821 143.70578292 C-260.32979788 141.9485219 -260.32979788 141.9485219 -260.29849377 140.15576065 C-260.25803505 137.83766165 -260.21764485 135.51956146 -260.17732541 133.20146004 C-260.08057696 127.65657809 -259.98175292 122.11174878 -259.87815652 116.56699027 C-259.69058086 106.46831819 -259.51797526 96.37018758 -259.40024904 86.27042391 C-259.34299813 81.49487583 -259.27509663 76.71950733 -259.2059389 71.94411856 C-259.17603929 69.68877106 -259.15106966 67.4333517 -259.13152409 65.1778907 C-258.96391515 46.09797175 -258.12913778 29.90490326 -244.40759277 15.25408936 C-234.02756044 5.35487595 -222.49862714 1.86251494 -208.53503418 1.46136475 C-207.41153376 1.42405526 -206.28803333 1.38674578 -205.13048744 1.3483057 C-189.17377612 0.8701667 -173.20771585 0.83634917 -157.24516249 0.76326632 C-152.517847 0.7407893 -147.79055762 0.71364768 -143.06326294 0.68721008 C-135.06672466 0.64316527 -127.07017503 0.6024389 -119.0736084 0.56390381 C-111.07391505 0.52533197 -103.07424503 0.48385576 -95.07458496 0.43890381 C-73.52282038 0.31805063 -51.97109587 0.21160252 -30.4191246 0.13492393 C-20.27935652 0.09854904 -10.1396815 0.05579568 0 0 Z " fill="#EF5225" transform="translate(4319.5325927734375,1194.9334106445313)"/>
<path d="M0 0 C3.39979105 -0.00553779 6.79919243 -0.02975028 10.19886017 -0.05797195 C13.49517293 -0.08118595 16.79150763 -0.08304744 20.08789062 -0.08789062 C21.29223755 -0.10023743 22.49658447 -0.11258423 23.73742676 -0.12530518 C38.54488238 -0.08640552 49.5117448 4.74284791 60.26367188 14.86132812 C70.88391478 25.87960399 73.56418627 39.49882016 73.82875061 54.36347961 C73.84593924 55.14095132 73.86312788 55.91842302 73.88083738 56.71945447 C73.93695694 59.30354396 73.98716297 61.88771291 74.03735352 64.47192383 C74.07655771 66.333885 74.11612308 68.1958386 74.15602112 70.05778503 C74.26307334 75.1038071 74.36493397 80.14992186 74.46575093 85.19607186 C74.57242298 90.49634704 74.68352909 95.79652945 74.79405212 101.09672546 C74.97922237 110.00819352 75.16118509 118.91972248 75.34106445 127.83129883 C75.54817885 138.09105358 75.7595187 148.35071411 75.97335249 158.61033088 C76.20188121 169.57675912 76.42738336 180.54324809 76.65196681 191.50975776 C76.71638444 194.64593633 76.781343 197.7821033 76.8464222 200.9182682 C76.94925898 205.88162819 77.05003707 210.84502619 77.14932823 215.80845833 C77.18575019 217.6146249 77.22280574 219.42077884 77.26059723 221.22691727 C77.45057361 230.32766142 77.59914499 239.42848525 77.64891052 248.53117371 C77.65701754 249.30311894 77.66512455 250.07506417 77.67347723 250.87040168 C77.70704879 264.73540406 73.39908087 276.41771856 63.86914062 286.55273438 C51.30137333 298.4055688 36.79268098 300.47904486 20.28930664 301.88934326 C-42.87968838 307.36140699 -108.746617 323.69794963 -152.09960938 373.33398438 C-195.07008196 426.61737038 -205.51749784 495.85540369 -207.06835938 562.42773438 C-207.09048492 563.36612152 -207.11261047 564.30450867 -207.13540649 565.27133179 C-207.46995295 580.20629584 -207.44853867 595.11780026 -207.13085938 610.05273438 C-207.10526947 611.42031387 -207.10526947 611.42031387 -207.0791626 612.81552124 C-206.70709512 641.81334551 -206.70709512 641.81334551 -192.44335938 666.24023438 C-179.50026437 677.05834364 -166.56442124 679.77167539 -150.03686523 678.95556641 C-148.13401591 678.87533832 -148.13401591 678.87533832 -146.19272518 678.79348946 C-142.275441 678.62355514 -138.35948644 678.43489667 -134.44335938 678.24023438 C-133.27858692 678.1838253 -132.11381447 678.12741623 -130.91374588 678.06929779 C-124.1102043 677.73621496 -117.30869139 677.37184371 -110.50757027 676.99276352 C-106.8176486 676.78771922 -103.12749244 676.58746802 -99.4372406 676.38845825 C-88.97103858 675.82371725 -78.50508951 675.25467384 -68.03979492 674.67333984 C-61.5747071 674.31454919 -55.1092017 673.96433168 -48.64335442 673.61951065 C-46.20696574 673.48794567 -43.77074533 673.35322103 -41.3347187 673.21511459 C-0.84868121 670.92297009 -0.84868121 670.92297009 15.55664062 683.24023438 C25.81427889 692.53518167 32.0858422 704.50042363 32.89758301 718.37107849 C32.94950068 719.80040128 32.99235892 721.23007466 33.02734375 722.65991211 C33.05372075 723.45387642 33.08009775 724.24784073 33.10727406 725.06586456 C33.19225297 727.6850017 33.26510681 730.30432608 33.33789062 732.92382812 C33.39616212 734.79393305 33.45519574 736.66401437 33.51493835 738.53407288 C33.67284652 743.54365073 33.82026386 748.5534854 33.96545029 753.56344604 C34.1182006 758.78010078 34.27987815 763.99647878 34.44067383 769.21289062 C34.666645 776.57131147 34.88925479 783.92982045 35.1076746 791.28846931 C35.4263609 802.02203862 35.76276784 812.75484882 36.11856079 823.48724937 C37.72933116 872.08888532 37.72933116 872.08888532 37.90811157 891.3527832 C37.92332114 892.81526878 37.94468574 894.27770904 37.97348022 895.73999023 C38.24106073 910.29742878 34.38166027 922.55747219 24.52539062 933.49414062 C14.21679033 943.33586591 1.93861033 947.21981995 -11.98999023 947.87866211 C-12.7965613 947.92296545 -13.60313236 947.96726879 -14.43414497 948.01291466 C-17.09183551 948.15708603 -19.74994709 948.29052573 -22.40820312 948.42382812 C-24.30142075 948.52423339 -26.19460357 948.62529686 -28.0877533 948.72697449 C-32.10391823 948.94124029 -36.12029181 949.15075538 -40.13690186 949.35650635 C-46.40178709 949.67756876 -52.66599313 950.01076699 -58.93017578 950.34521484 C-76.56478507 951.28325216 -94.2004813 952.19451472 -111.84038734 953.02742958 C-113.90383438 953.12526432 -115.96721004 953.22447402 -118.03056335 953.32426453 C-124.10509697 953.61794319 -130.17958334 953.90290451 -136.25561523 954.16381836 C-155.56910551 955.04800534 -172.19360215 956.67799027 -186.21289062 971.45507812 C-192.76738143 979.6395824 -196.69636523 989.46777122 -196.69676208 999.97746658 C-196.69855363 1000.62362961 -196.70034517 1001.26979263 -196.702191 1001.93553635 C-196.70366757 1004.10380621 -196.6885583 1006.27155822 -196.67163086 1008.4397583 C-196.66853877 1009.21291308 -196.66544668 1009.98606786 -196.66226089 1010.78265157 C-196.56988978 1032.98790891 -195.7137147 1055.17849457 -194.92158556 1077.36730623 C-194.6961178 1083.72286063 -194.47802935 1090.0786692 -194.25900269 1096.43444824 C-193.87989131 1107.40831038 -193.49641049 1118.38201217 -193.10983276 1129.35561371 C-192.70465254 1140.8585177 -192.30249635 1152.36152174 -191.90408325 1163.86466217 C-191.87912901 1164.58515026 -191.85417477 1165.30563835 -191.82846434 1166.04795942 C-191.70169284 1169.70875997 -191.57498268 1173.36956264 -191.44830191 1177.03036633 C-191.19088638 1184.46868662 -190.93306853 1191.90699296 -190.67512512 1199.34529495 C-190.63641964 1200.46144752 -190.63641964 1200.46144752 -190.59693222 1201.60014862 C-189.98517737 1219.23841691 -189.36932741 1236.87654188 -188.75292969 1254.51464844 C-188.72602252 1255.28462388 -188.69911535 1256.05459933 -188.67139281 1256.84790737 C-188.45338608 1263.08637944 -188.23536888 1269.32485115 -188.0173346 1275.56332227 C-187.38862795 1293.55227607 -186.76093685 1311.54126523 -186.13378906 1329.53027344 C-186.10689606 1330.30163027 -186.08000305 1331.07298711 -186.0522951 1331.86771839 C-185.43743064 1349.50399774 -184.82344247 1367.14030719 -184.21159363 1384.77669144 C-184.18583122 1385.51926714 -184.16006881 1386.26184284 -184.13352572 1387.02692084 C-183.8762492 1394.44304363 -183.61908574 1401.85917034 -183.36210957 1409.27530354 C-182.81211714 1425.14649273 -182.25965796 1441.01759076 -181.70212719 1456.88851704 C-181.29602371 1468.44946285 -180.89277883 1480.0105048 -180.49230313 1491.57164702 C-180.27571756 1497.82087036 -180.05777732 1504.07003861 -179.83611679 1510.31908417 C-179.63267155 1516.0550937 -179.43315997 1521.79122696 -179.23657978 1527.52747574 C-179.16536038 1529.58608341 -179.09276798 1531.64464422 -179.01854622 1533.70314583 C-178.62895569 1544.53036613 -178.36344117 1555.35342372 -178.29908752 1566.18785477 C-178.28803637 1567.18389286 -178.27698522 1568.17993095 -178.26559919 1569.20615201 C-178.24137168 1583.17081767 -183.25620197 1594.70540809 -192.44335938 1605.24023438 C-195.22070312 1607.55664062 -195.22070312 1607.55664062 -198.38085938 1609.80273438 C-199.40050781 1610.54652344 -200.42015625 1611.2903125 -201.47070312 1612.05664062 C-210.26261394 1617.42457686 -220.35751619 1618.8294224 -230.45849609 1618.92504883 C-232.27861867 1618.96564533 -232.27861867 1618.96564533 -234.1355114 1619.00706196 C-236.95235465 1619.06963812 -239.76910863 1619.11977163 -242.5863266 1619.16217422 C-248.00390687 1619.24527446 -253.42055775 1619.36462467 -258.83746338 1619.48300171 C-272.62483331 1619.77899451 -286.41292037 1620.0322528 -300.20117188 1620.28320312 C-302.72356065 1620.32935713 -305.2459491 1620.37552846 -307.76833725 1620.42171669 C-318.25221024 1620.61335343 -328.73610321 1620.80382736 -339.22006416 1620.99059582 C-341.91119537 1621.03855683 -344.60232639 1621.0865284 -347.29345703 1621.13452148 C-347.96201347 1621.14644306 -348.63056991 1621.15836464 -349.31938563 1621.17064748 C-360.20635124 1621.36503455 -371.09312496 1621.56863165 -381.97985221 1621.77589711 C-393.22317351 1621.98979771 -404.46662658 1622.19522177 -415.71024597 1622.39294988 C-421.99749995 1622.50372655 -428.28463852 1622.61810667 -434.57165909 1622.74147606 C-440.46674785 1622.85696246 -446.36193194 1622.96201243 -452.25735092 1623.05913734 C-454.41365175 1623.09645028 -456.56989203 1623.13748538 -458.7260437 1623.18260193 C-477.00840619 1623.5615754 -493.23638696 1623.21627777 -507.44335938 1610.24023438 C-524.67199177 1593.50917982 -523.52689693 1572.63114968 -524.20227051 1550.2481842 C-524.27227443 1548.00476951 -524.34255471 1545.76136342 -524.41308641 1543.51796526 C-524.60552811 1537.37184729 -524.7940827 1531.22561534 -524.98199677 1525.0793575 C-525.16465532 1519.12525404 -525.35027343 1513.17124305 -525.53582828 1507.21722932 C-525.91527168 1495.03874976 -526.29185817 1482.86018346 -526.66685486 1470.68156624 C-527.03843948 1458.61440198 -527.41148044 1446.54728406 -527.78639221 1434.4802227 C-527.80974624 1433.7285362 -527.83310027 1432.9768497 -527.857162 1432.20238482 C-527.97579872 1428.38419347 -528.094465 1424.56600304 -528.21314508 1420.74781304 C-529.05347276 1393.7117497 -529.89116312 1366.67560525 -530.72705078 1339.6394043 C-530.77756857 1338.00547448 -530.82808638 1336.37154467 -530.87860423 1334.73761486 C-530.95449403 1332.28304724 -531.03038368 1329.82847962 -531.10627327 1327.37391199 C-531.1822783 1324.9156158 -531.2582839 1322.45731962 -531.33428955 1319.99902344 C-531.35939271 1319.18708461 -531.38449586 1318.37514579 -531.41035972 1317.53860275 C-531.99290013 1298.69718586 -532.57614253 1279.85579071 -533.15966797 1261.0144043 C-533.18465233 1260.20766647 -533.20963669 1259.40092864 -533.23537815 1258.56974421 C-533.8064049 1240.13169413 -534.37782786 1221.69365639 -534.95009613 1203.2556448 C-534.9741863 1202.47946757 -534.99827647 1201.70329033 -535.02309665 1200.90359258 C-535.26369375 1193.15178349 -535.50433367 1185.39997573 -535.7450501 1177.64817035 C-536.26108485 1161.02963201 -536.7760253 1144.41106071 -537.28876339 1127.79242031 C-537.66276604 1115.67060032 -538.03791579 1103.54881632 -538.41425765 1091.42706872 C-538.61783582 1084.86862388 -538.82079732 1078.31016099 -539.02223015 1071.75164986 C-539.20701897 1065.73525768 -539.39343909 1059.71891824 -539.58109516 1053.70261484 C-539.64831568 1051.53843393 -539.71495631 1049.37423491 -539.78092295 1047.21001542 C-539.98403262 1040.55274205 -540.20277134 1033.89626085 -540.44335938 1027.24023438 C-540.47733153 1026.27889892 -540.51130368 1025.31756346 -540.5463053 1024.32709663 C-540.65097444 1021.46550555 -540.76639176 1018.60455203 -540.88532257 1015.74352169 C-540.93124199 1014.46467751 -540.93124199 1014.46467751 -540.97808906 1013.15999809 C-541.57629973 999.70956169 -546.48923819 987.15223301 -556.46679688 977.83398438 C-572.84823009 964.62523981 -590.37886143 965.89221117 -610.34179688 966.89648438 C-611.74783311 966.96417196 -613.15389045 967.03142244 -614.55996704 967.0982666 C-620.44832016 967.37889301 -626.33631761 967.66657539 -632.22412109 967.95849609 C-660.82489255 969.37192336 -660.82489255 969.37192336 -674.58789062 969.43164062 C-675.49433319 969.43905273 -676.40077576 969.44646484 -677.33468628 969.45410156 C-690.60763845 969.4095449 -700.24732565 964.59952 -710.13085938 955.86523438 C-710.89398438 954.99898437 -711.65710937 954.13273437 -712.44335938 953.24023438 C-713.00796875 952.60601563 -713.57257813 951.97179688 -714.15429688 951.31835938 C-722.11528056 941.84579651 -724.45546823 931.51190913 -724.87304688 919.38476562 C-724.90791199 918.46052795 -724.9427771 917.53629028 -724.97869873 916.58404541 C-725.09669324 913.40709641 -725.20788838 910.22995348 -725.31835938 907.05273438 C-725.35838074 905.93164276 -725.3984021 904.81055115 -725.43963623 903.65548706 C-725.75873582 894.70905436 -726.06063996 885.7620941 -726.35775757 876.81491089 C-726.44821715 874.09412545 -726.53915406 871.37335621 -726.63012695 868.65258789 C-727.0515063 856.02876995 -727.46144712 843.40462045 -727.86187744 830.78012085 C-727.99719441 826.51768621 -728.13509088 822.25534798 -728.27532959 817.99307251 C-728.73138756 804.07694757 -729.13941439 790.16057914 -729.44335938 776.24023438 C-729.46403976 775.29829979 -729.48472015 774.3563652 -729.50602722 773.38588715 C-729.62103526 767.92711574 -729.70720006 762.46903716 -729.7541008 757.00924492 C-729.77057966 755.35919496 -729.79364813 753.70919428 -729.82411575 752.05934334 C-730.09342837 736.66952349 -727.04126983 723.60524465 -716.34179688 711.95117188 C-702.81460274 699.1887661 -686.61279231 697.7868149 -668.93554688 696.92382812 C-667.04136803 696.82200175 -665.14725436 696.71895648 -663.25320435 696.61476135 C-658.2856534 696.34402831 -653.3175126 696.08659329 -648.34906006 695.83300781 C-640.42124847 695.42683819 -632.49438172 695.00319948 -624.56778336 694.57408333 C-621.82935823 694.42816096 -619.09063581 694.28969497 -616.35177612 694.15220642 C-608.23886318 693.73179268 -600.15577793 693.20444075 -592.08056641 692.30297852 C-591.40220167 692.23055404 -590.72383694 692.15812956 -590.0249157 692.0835104 C-577.67895838 690.59730089 -567.5644463 684.46939283 -559.69335938 674.99023438 C-554.48722278 667.93168173 -550.29635565 659.63090048 -550.33656311 650.73173523 C-550.33807877 649.8317984 -550.33959442 648.93186157 -550.34115601 648.00465393 C-550.34789337 647.02367233 -550.35463074 646.04269073 -550.36157227 645.03198242 C-550.36463882 643.99189026 -550.36770538 642.9517981 -550.37086487 641.88018799 C-550.37802701 639.61419093 -550.38742067 637.34820009 -550.39875984 635.08222008 C-550.41624457 631.45445212 -550.42648569 627.82672901 -550.43467712 624.19892883 C-550.45899912 613.87972756 -550.49370796 603.56058427 -550.53930664 593.24145508 C-550.66741673 563.17863301 -550.59433551 533.23718828 -548.44335938 503.24023438 C-548.36747589 502.17437103 -548.29159241 501.10850769 -548.21340942 500.01034546 C-547.79895354 494.40940588 -547.28818196 488.82468569 -546.69335938 483.24023438 C-546.6109903 482.44212341 -546.52862122 481.64401245 -546.4437561 480.82171631 C-538.05092781 400.0231955 -516.84750976 321.99393907 -459.44335938 218.24023438 C-458.98606445 217.54736328 -458.52876953 216.85449219 -458.05761719 216.140625 C-447.82968429 200.75086275 -436.55500627 186.18816322 -424.44335938 172.24023438 C-423.49203125 171.13808594 -423.49203125 171.13808594 -422.52148438 170.01367188 C-420.8406055 168.07834803 -419.14383422 166.15835914 -417.44335938 164.24023438 C-416.80527344 163.51803711 -416.1671875 162.79583984 -415.50976562 162.05175781 C-409.88152734 155.73418943 -404.04836136 149.66213342 -398.06835938 143.67773438 C-397.19953125 142.79666016 -396.33070312 141.91558594 -395.43554688 141.0078125 C-390.16461478 135.72518455 -384.72019157 130.85370471 -378.87890625 126.20825195 C-376.61107401 124.37575439 -374.4565848 122.47113125 -372.31835938 120.49023438 C-349.77261208 100.27127239 -323.31891159 83.77533254 -296.734375 69.47607422 C-295.18784119 68.64182932 -293.64493296 67.80083304 -292.10546875 66.95361328 C-216.85465557 25.54113439 -129.48645537 7.07757535 -44.44335938 1.24023438 C-43.15880859 1.14597168 -41.87425781 1.05170898 -40.55078125 0.95458984 C-27.04873799 0.03497694 -13.52821447 0.01880831 0 0 Z " fill="#EF5225" transform="translate(5972.443359375,1026.759765625)"/>
<path d="M0 0 C1.04985077 0.1308197 1.04985077 0.1308197 2.12091064 0.26428223 C65.59280241 8.20651585 125.87202092 26.36649056 183 55 C183.90717773 55.4522998 184.81435547 55.90459961 185.74902344 56.37060547 C218.62139831 72.85829682 249.5026069 94.11020739 276.67578125 118.89453125 C278.71273925 120.73977555 280.78270847 122.5308167 282.875 124.3125 C294.3737402 134.45569766 305.67343422 144.86001471 307.20410156 161.17553711 C307.30372565 163.55871636 307.32914301 165.92731892 307.3125 168.3125 C307.30404053 169.57707031 307.30404053 169.57707031 307.29541016 170.8671875 C306.98601654 186.72284428 298.43844835 198.64825303 289.80194092 211.41940308 C287.379826 215.00186869 284.97424612 218.59543137 282.56640625 222.1875 C281.78976624 223.34486916 281.78976624 223.34486916 280.99743652 224.52561951 C273.61108283 235.54461188 266.33548995 246.63699802 259.04489136 257.7194519 C253.06267173 266.8123565 247.07692514 275.9022433 241.03125 284.953125 C233.56225814 296.13484546 226.17836935 307.3725294 218.78710938 318.60571289 C211.4882333 329.69685645 204.17051492 340.77450833 196.78860474 351.81062317 C193.53501113 356.67878409 190.31539559 361.56710337 187.12930298 366.47973633 C177.89306152 380.62274939 168.27398907 392.54871971 150.98046875 396.56640625 C133.25433631 399.14517519 119.66593276 394.31229824 105.25 384.4375 C69.01625679 359.75431249 25.62226443 344.82129051 -18 341 C-19.65322266 340.83564453 -19.65322266 340.83564453 -21.33984375 340.66796875 C-81.32217889 335.60759177 -143.73161992 348.46475361 -193 384 C-193.60134766 384.4316748 -194.20269531 384.86334961 -194.82226562 385.30810547 C-202.90494134 391.16873189 -210.30546197 397.67146777 -217.50830078 404.57128906 C-218.88165496 405.88665218 -220.2664824 407.1900085 -221.65234375 408.4921875 C-228.52076195 415.11104232 -234.28743771 422.39227486 -240 430 C-240.62624268 430.81911865 -240.62624268 430.81911865 -241.26513672 431.65478516 C-271.29302179 471.04479544 -286.35131998 520.16439301 -291 569 C-291.11214844 570.12148437 -291.22429688 571.24296875 -291.33984375 572.3984375 C-297.4298107 645.31119244 -278.57708556 718.77024489 -231.1875 775.125 C-198.67497044 812.77332773 -150.95773941 836.17502122 -102 843 C-100.75379883 843.17587646 -99.50759766 843.35175293 -98.22363281 843.53295898 C-85.40852215 845.21210039 -72.65937304 845.35583393 -59.75 845.3125 C-58.10224579 845.31026428 -58.10224579 845.31026428 -56.42120361 845.3079834 C-38.76519425 845.26500835 -21.49541565 844.52513932 -4 842 C-2.95392578 841.85546387 -1.90785156 841.71092773 -0.83007812 841.56201172 C30.76192616 837.10736152 61.32364539 828.02854889 90 814 C91.16789062 813.43442383 91.16789062 813.43442383 92.359375 812.85742188 C108.89376736 804.76816204 124.06028289 794.65923597 138.625 783.4375 C144.41938062 778.98527169 150.04571185 775.43342421 157 773 C158.216875 772.566875 159.43375 772.13375 160.6875 771.6875 C173.75587616 768.92921569 187.74394801 770.69376527 199 778 C200.35335895 778.97272675 201.68662604 779.9739266 203 781 C203.7940625 781.57492187 204.588125 782.14984375 205.40625 782.7421875 C208.63673003 785.55426199 210.98918861 788.67379246 213.5 792.125 C214.01771973 792.82584717 214.53543945 793.52669434 215.06884766 794.2487793 C219.4229955 800.16040753 223.71629243 806.11708374 228.00415039 812.0769043 C234.26196308 820.77258506 240.63238954 829.38458442 247 838 C254.42059673 848.0401124 261.81196039 858.09797508 269.10571289 868.23071289 C273.0339888 873.68106937 277.00712036 879.09683174 281 884.5 C285.53751011 890.64016269 290.03966576 896.80354661 294.5 903 C298.9442052 909.17194481 303.422807 915.3169137 307.9375 921.4375 C308.51669189 922.22294189 309.09588379 923.00838379 309.69262695 923.81762695 C312.65844296 927.83634671 315.63067042 931.85019964 318.609375 935.859375 C322.0954714 940.5565857 325.55628887 945.27164109 329 950 C329.53351074 950.72912598 330.06702148 951.45825195 330.61669922 952.20947266 C340.77698094 966.17550652 346.27872545 978.31396634 345 996 C342.00377706 1012.26521026 332.64342293 1023.6205015 320.21875 1034.09765625 C318.00440913 1035.99621963 315.86155406 1037.96108127 313.7253418 1039.94677734 C307.68360727 1045.55785005 301.4684662 1050.88292697 295 1056 C294.35289062 1056.51433594 293.70578125 1057.02867188 293.0390625 1057.55859375 C224.47889709 1111.92956742 144.36295442 1147.35707778 -20.67578125 1174.62109375 C-21.52225094 1174.68561863 -22.36872063 1174.75014351 -23.24084091 1174.81662369 C-41.34159701 1176.1642899 -59.39238405 1176.4647884 -77.53710938 1176.39111328 C-81.78244432 1176.37399541 -86.02721548 1176.38424247 -90.27253151 1176.40143681 C-123.17905395 1176.51405504 -156.02611675 1174.53337515 -188.57421875 1169.50390625 C-189.32845627 1169.38825821 -190.08269379 1169.27261017 -190.85978699 1169.15345764 C-262.40788153 1157.9601831 -332.09182449 1134.94254735 -394 1097 C-395.4410812 1096.13227245 -396.8824633 1095.26504431 -398.32421875 1094.3984375 C-414.29916961 1084.70026636 -429.49359505 1073.76934741 -444 1062 C-444.97324219 1061.22011719 -445.94648437 1060.44023437 -446.94921875 1059.63671875 C-452.25094568 1055.35540788 -457.3884216 1050.93387727 -462.41796875 1046.3359375 C-463.78766248 1045.09678946 -465.16258791 1043.86252073 -466.57299805 1042.66992188 C-473.2148403 1037.02031418 -479.33811504 1030.84796828 -485.49926758 1024.68603516 C-487.42444702 1022.76303818 -489.35749031 1020.84819426 -491.29101562 1018.93359375 C-497.61613067 1012.63654558 -503.65499169 1006.31413099 -509.17700195 999.29052734 C-510.95137417 997.06109649 -512.81345663 994.96394033 -514.75 992.875 C-539.39977715 965.38854214 -558.78029733 932.48428086 -576 900 C-576.46164551 899.13020508 -576.92329102 898.26041016 -577.39892578 897.36425781 C-616.63363922 822.79709432 -635.65958472 738.68310303 -616.6328125 385.02801514 C-607.01933672 354.21908769 -594.4402345 324.81361606 -580 296 C-579.484375 294.96617187 -578.96875 293.93234375 -578.4375 292.8671875 C-560.25682389 256.60052631 -537.16674545 222.95602525 -511 192 C-510.45005371 191.34563965 -509.90010742 190.6912793 -509.33349609 190.01708984 C-504.2675498 183.99456211 -499.21823125 178.01177656 -493.546875 172.54296875 C-491.91099607 170.91122082 -490.4306784 169.20048538 -488.9375 167.4375 C-481.64541166 158.99055605 -473.55963319 150.97092085 -465.04296875 143.76171875 C-462.8950211 141.90947326 -460.81433407 139.9920712 -458.73632812 138.06201172 C-452.68834334 132.45065635 -446.47233805 127.12013597 -440 122 C-439.35289062 121.48566406 -438.70578125 120.97132812 -438.0390625 120.44140625 C-427.283251 111.91161434 -416.31865327 103.7667284 -405 96 C-404.38092773 95.57267578 -403.76185547 95.14535156 -403.12402344 94.70507812 C-325.16465928 41.05832297 -232.73418956 10.14485028 -139 0 C-138.33848938 -0.07412109 -137.67697876 -0.14824219 -136.99542236 -0.22460938 C-92.17300698 -5.23147524 -44.778632 -5.69818636 0 0 Z " fill="#EF5225" transform="translate(2400,1475)"/>
<path d="M0 0 C1.16973799 0.01487741 2.33947598 0.02975481 3.54466057 0.04508305 C7.82060262 0.11790366 12.09331696 0.236084 16.36767578 0.37084961 C17.21700086 0.39745462 18.06632593 0.42405963 18.94138813 0.45147085 C33.84591525 0.92789716 48.74496432 1.5362075 63.64412546 2.15527987 C69.76266067 2.40834982 75.88145219 2.65507452 82.00021362 2.90260315 C92.25599481 3.31836452 102.51159939 3.73826302 112.76708984 4.16113281 C125.88228514 4.7019048 138.99773496 5.23621884 152.11328316 5.76835537 C163.4677881 6.22904397 174.82219339 6.69217078 186.17657232 7.15595365 C188.59587214 7.25474354 191.01517507 7.35345725 193.43448114 7.45209384 C200.32853 7.73318855 207.2225221 8.0156042 214.11643028 8.30012894 C216.19229897 8.38562135 218.2681853 8.47068669 220.34409142 8.55526543 C226.68590584 8.81386127 233.02714111 9.08248802 239.36767578 9.37084961 C240.22384035 9.40964399 241.08000491 9.44843836 241.96211386 9.48840833 C244.43243182 9.60335783 246.90224049 9.72589967 249.37203979 9.85145569 C250.095698 9.88505359 250.8193562 9.91865149 251.56494343 9.95326751 C265.46939701 10.69611053 277.90042859 16.05894096 287.36767578 26.37084961 C298.82805007 41.09267429 298.93038199 55.16545249 298.69126892 73.04338074 C298.6735855 75.44012628 298.65726342 77.8368822 298.6421966 80.23364562 C298.58441498 87.94658468 298.48011401 95.65853899 298.36767578 103.37084961 C298.35005508 104.62993701 298.33243437 105.88902441 298.31427971 107.18626598 C298.05707202 125.40604911 297.70646407 143.62349231 297.32944346 161.84109584 C297.16829618 169.63802615 297.01376516 177.435085 296.85927105 185.23214949 C296.57404717 199.61806863 296.28389189 214.00388405 295.99069405 228.38964272 C295.70076135 242.61578914 295.41307319 256.84197813 295.12824821 271.06822777 C295.11037083 271.96107747 295.09249345 272.85392717 295.07407433 273.77383292 C294.98323585 278.31107584 294.89243398 282.84831949 294.80164491 287.3855634 C294.16162698 319.36699475 293.51650475 351.34832127 292.8684082 383.32958984 C292.24170918 414.25531118 291.6177885 445.18108672 290.99731445 476.10693359 C290.97817479 477.06085598 290.95903513 478.01477837 290.93931547 478.9976075 C290.78527268 486.67517654 290.63124215 494.35274583 290.47723331 502.03031555 C289.79194142 536.19307314 289.10457804 570.35578908 288.41662344 604.51849315 C288.344897 608.08036283 288.27318437 611.6422328 288.20148435 615.20410302 C287.78906488 635.69193731 287.37606086 656.17975952 286.96096987 676.66753987 C286.92864649 678.26300574 286.89632394 679.85847163 286.86400223 681.45393753 C286.84025554 682.62612238 286.84025554 682.62612238 286.81602911 683.82198774 C286.70791375 689.16091046 286.60023786 694.49984192 286.49276161 699.83877754 C286.44866789 702.02754807 286.40456158 704.21631834 286.36044393 706.40508838 C286.3316649 707.83310447 286.30290282 709.2611209 286.27415812 710.68913769 C286.12504658 718.09250326 285.97369828 725.49580668 285.81570923 732.89898932 C285.78905688 734.1483797 285.76240452 735.39777008 285.73494451 736.68502077 C285.68283306 739.12693463 285.6306373 741.5688467 285.57835127 744.01075683 C285.4381511 750.66180973 285.31638211 757.31276975 285.21645753 763.96454862 C285.15751887 767.80023856 285.08857617 771.63570936 285.01780205 775.47119709 C284.98896833 777.17752819 284.96491716 778.88394904 284.94640506 780.59042332 C284.76161767 797.49734657 282.1117086 812.31741693 270.07080078 824.97631836 C253.71299282 839.46668871 234.77129764 838.76238841 214.14892578 838.29663086 C211.61998453 838.25155423 209.09101682 838.20794231 206.56202698 838.16567993 C201.15270389 838.07217794 195.74370953 837.9689933 190.33474731 837.85665894 C182.52057007 837.6944243 174.70614544 837.54977106 166.89153922 837.40990412 C157.3271976 837.23858455 147.76293026 837.06378342 138.19883728 836.8790741 C137.45835642 836.86477917 136.71787555 836.85048423 135.95495588 836.83575612 C135.21409338 836.82145344 134.47323089 836.80715076 133.70991802 836.79241467 C115.5796661 836.44252926 97.44899669 836.13440919 79.31762552 835.84886098 C75.89809361 835.79487137 72.47857258 835.74020346 69.05905151 835.68553162 C68.05735937 835.66952645 68.05735937 835.66952645 67.03543103 835.65319794 C65.03159586 835.62118025 63.02776082 835.5891546 61.02392578 835.55712891 C53.27637794 835.4333575 45.52882626 835.30987738 37.78125 835.18789673 C31.75278199 835.09258353 25.7243878 834.99342667 19.69602776 834.89152145 C17.50458799 834.85506287 15.31312714 834.81984384 13.12164497 834.78602982 C-33.65983115 834.06183123 -33.65983115 834.06183123 -48.88623047 820.33959961 C-58.30861928 810.47022841 -62.99216353 798.32901762 -62.85935116 784.81177521 C-62.85904446 783.9813973 -62.85873777 783.1510194 -62.85842178 782.29547852 C-62.85403579 779.50767612 -62.83422645 776.72022247 -62.81370544 773.93249512 C-62.80557799 771.89564449 -62.79791134 769.85879198 -62.79066223 767.82193804 C-62.67245158 741.63436306 -62.24508083 715.44857107 -61.83692689 689.26421186 C-61.71400358 681.36935673 -61.59531186 673.4744391 -61.47665702 665.57951887 C-61.25756076 651.00935442 -61.03524008 636.43924093 -60.81093025 621.86915588 C-60.58893667 607.44936845 -60.36830173 593.02956131 -60.14944267 578.60972595 C-60.13572433 577.70596119 -60.12200599 576.80219642 -60.10787194 575.87104484 C-60.05216354 572.20072426 -59.99646427 568.53040354 -59.94077723 564.86008264 C-59.42028448 530.55494641 -58.89606482 496.2498681 -58.3698929 461.94481855 C-57.90427065 431.58637688 -57.44108391 401.22789911 -56.98022461 370.86938477 C-56.95823837 369.42111717 -56.95823837 369.42111717 -56.93580796 367.94359165 C-56.9062299 365.99523892 -56.87665205 364.04688619 -56.8470744 362.09853345 C-56.77337527 357.24379715 -56.69967393 352.38906088 -56.62596989 347.53432465 C-56.61142389 346.57617768 -56.5968779 345.61803071 -56.58189112 344.63084899 C-56.12525373 314.55377005 -55.66644848 284.47672417 -55.20731219 254.39968329 C-55.05563676 244.46358939 -54.90410298 234.52749337 -54.75300908 224.59139061 C-54.73950847 223.70358001 -54.72600787 222.81576941 -54.71209815 221.90105546 C-54.68492859 220.1143136 -54.65775912 218.32757174 -54.63058975 216.54082988 C-54.38306027 200.26333784 -54.13445385 183.98586277 -53.88412768 167.70841348 C-53.76377222 159.88082619 -53.64385221 152.05323294 -53.52528381 144.22561836 C-53.48069101 141.28514151 -53.43604963 138.3446654 -53.39135742 135.40419006 C-53.38051566 134.69085484 -53.3696739 133.97751962 -53.35850359 133.24256818 C-53.18582286 121.903819 -53.00151046 110.56530122 -52.80923427 99.22686493 C-52.68989586 92.1201965 -52.58579219 85.01354334 -52.49579348 77.90644446 C-52.43912076 73.61549978 -52.37129506 69.32478222 -52.30062353 65.03404754 C-52.27106791 63.09174956 -52.24627589 61.1493716 -52.22689087 59.20694548 C-52.0511671 41.93798008 -50.29797256 27.01808967 -37.75732422 13.99584961 C-26.93724067 3.83493906 -14.88575246 -0.37832321 0 0 Z " fill="#EF5225" transform="translate(4847.63232421875,1384.629150390625)"/>
<path d="M0 0 C1.060979 0.00054382 2.12195801 0.00108765 3.21508789 0.00164795 C19.70698211 0.04048238 35.5268587 0.82517007 51.6875 4.375 C52.70553711 4.58930664 53.72357422 4.80361328 54.77246094 5.02441406 C81.56886925 10.77547077 107.50320685 21.04661663 129.6875 37.375 C130.75484375 38.14714844 131.8221875 38.91929688 132.921875 39.71484375 C152.41427159 54.19554655 167.93611119 72.20427262 179.6875 93.375 C180.03554688 93.99713379 180.38359375 94.61926758 180.7421875 95.26025391 C192.55678068 116.68530799 199.65716423 141.88231937 199.92578125 166.40625 C199.9355751 167.15137848 199.94536896 167.89650696 199.95545959 168.66421509 C200.38487157 209.85088885 191.53002124 248.39310519 165.6875 281.375 C165.02492187 282.24125 164.36234375 283.1075 163.6796875 284 C132.08202528 324.10920961 83.93215993 345.86866263 34.125 352.6875 C-23.37793877 358.7372247 -85.94896868 349.13152153 -132.12109375 312.0390625 C-167.47964019 282.87670113 -188.63845742 243.33517603 -193.87109375 197.8046875 C-198.26969316 151.37846539 -187.54230596 104.26414849 -158.3125 67.375 C-154.51254817 62.84547642 -150.44788336 58.59701849 -146.3125 54.375 C-145.55453125 53.56675781 -144.7965625 52.75851562 -144.015625 51.92578125 C-107.44116566 13.68277906 -51.13288731 -0.09860062 0 0 Z " fill="#EF5225" transform="translate(4981.3125,985.625)"/>
</svg>
